<mxfile host="Electron" agent="Mozilla/5.0 (Windows NT 10.0; Win64; x64) AppleWebKit/537.36 (KHTML, like Gecko) draw.io/28.2.5 Chrome/138.0.7204.251 Electron/37.6.1 Safari/537.36" version="28.2.5" pages="4">
  <diagram id="6dOmBjDWQw8me5y5GOPh" name="До - BPMN AS-IS">
    <mxGraphModel dx="5550" dy="2803" grid="1" gridSize="10" guides="1" tooltips="1" connect="1" arrows="1" fold="1" page="1" pageScale="1" pageWidth="827" pageHeight="1169" math="0" shadow="0">
      <root>
        <mxCell id="0" />
        <mxCell id="1" parent="0" />
        <mxCell id="E1k1lD8S_yY3Wyi8EtwX-1" value="Медицинская клиника&amp;nbsp;&lt;span style=&quot;text-align: start; fill: rgb(144, 101, 176);&quot; data-reactroot=&quot;&quot; class=&quot;notion-enable-hover&quot; data-token-index=&quot;0&quot;&gt;«Вита» имени Е.Л. Яницкой&lt;/span&gt;" style="swimlane;html=1;childLayout=stackLayout;resizeParent=1;resizeParentMax=0;horizontal=1;startSize=20;horizontalStack=0;" vertex="1" parent="1">
          <mxGeometry x="50" y="960" width="2380" height="740" as="geometry" />
        </mxCell>
        <mxCell id="E1k1lD8S_yY3Wyi8EtwX-2" value="Администратор" style="swimlane;html=1;startSize=20;horizontal=0;" vertex="1" parent="E1k1lD8S_yY3Wyi8EtwX-1">
          <mxGeometry y="20" width="2380" height="410" as="geometry" />
        </mxCell>
        <mxCell id="E1k1lD8S_yY3Wyi8EtwX-3" style="edgeStyle=orthogonalEdgeStyle;rounded=0;orthogonalLoop=1;jettySize=auto;html=1;" edge="1" parent="E1k1lD8S_yY3Wyi8EtwX-2" source="E1k1lD8S_yY3Wyi8EtwX-4">
          <mxGeometry relative="1" as="geometry">
            <mxPoint x="680" y="160.00000000000023" as="targetPoint" />
          </mxGeometry>
        </mxCell>
        <mxCell id="E1k1lD8S_yY3Wyi8EtwX-4" value="Записать пациента на приём" style="points=[[0.25,0,0],[0.5,0,0],[0.75,0,0],[1,0.25,0],[1,0.5,0],[1,0.75,0],[0.75,1,0],[0.5,1,0],[0.25,1,0],[0,0.75,0],[0,0.5,0],[0,0.25,0]];shape=mxgraph.bpmn.task;whiteSpace=wrap;rectStyle=rounded;size=10;taskMarker=abstract;fontSize=11;" vertex="1" parent="E1k1lD8S_yY3Wyi8EtwX-2">
          <mxGeometry x="450" y="120" width="120" height="80" as="geometry" />
        </mxCell>
        <mxCell id="E1k1lD8S_yY3Wyi8EtwX-5" style="edgeStyle=orthogonalEdgeStyle;rounded=0;orthogonalLoop=1;jettySize=auto;html=1;entryX=0;entryY=0.5;entryDx=0;entryDy=0;entryPerimeter=0;" edge="1" parent="E1k1lD8S_yY3Wyi8EtwX-2" source="E1k1lD8S_yY3Wyi8EtwX-6" target="E1k1lD8S_yY3Wyi8EtwX-4">
          <mxGeometry relative="1" as="geometry">
            <mxPoint x="340" y="189.99999999999977" as="targetPoint" />
          </mxGeometry>
        </mxCell>
        <mxCell id="E1k1lD8S_yY3Wyi8EtwX-6" value="Найти свободное время для записи на  приём" style="points=[[0.25,0,0],[0.5,0,0],[0.75,0,0],[1,0.25,0],[1,0.5,0],[1,0.75,0],[0.75,1,0],[0.5,1,0],[0.25,1,0],[0,0.75,0],[0,0.5,0],[0,0.25,0]];shape=mxgraph.bpmn.task;whiteSpace=wrap;rectStyle=rounded;size=10;taskMarker=abstract;fontSize=11;" vertex="1" parent="E1k1lD8S_yY3Wyi8EtwX-2">
          <mxGeometry x="130" y="120" width="120" height="80" as="geometry" />
        </mxCell>
        <mxCell id="E1k1lD8S_yY3Wyi8EtwX-7" style="edgeStyle=orthogonalEdgeStyle;rounded=0;orthogonalLoop=1;jettySize=auto;html=1;" edge="1" parent="E1k1lD8S_yY3Wyi8EtwX-2" target="E1k1lD8S_yY3Wyi8EtwX-9">
          <mxGeometry relative="1" as="geometry">
            <mxPoint x="730" y="160.00000000000023" as="sourcePoint" />
          </mxGeometry>
        </mxCell>
        <mxCell id="E1k1lD8S_yY3Wyi8EtwX-8" style="edgeStyle=orthogonalEdgeStyle;rounded=0;orthogonalLoop=1;jettySize=auto;html=1;startArrow=none;startFill=0;endArrow=classic;endFill=1;" edge="1" parent="E1k1lD8S_yY3Wyi8EtwX-2" source="E1k1lD8S_yY3Wyi8EtwX-9">
          <mxGeometry relative="1" as="geometry">
            <mxPoint x="1050" y="160" as="targetPoint" />
          </mxGeometry>
        </mxCell>
        <mxCell id="E1k1lD8S_yY3Wyi8EtwX-9" value="Подтвердить запись по телефону" style="points=[[0.25,0,0],[0.5,0,0],[0.75,0,0],[1,0.25,0],[1,0.5,0],[1,0.75,0],[0.75,1,0],[0.5,1,0],[0.25,1,0],[0,0.75,0],[0,0.5,0],[0,0.25,0]];shape=mxgraph.bpmn.task;whiteSpace=wrap;rectStyle=rounded;size=10;taskMarker=abstract;fontSize=11;" vertex="1" parent="E1k1lD8S_yY3Wyi8EtwX-2">
          <mxGeometry x="810" y="120" width="120" height="80" as="geometry" />
        </mxCell>
        <mxCell id="E1k1lD8S_yY3Wyi8EtwX-10" value="Запись отменена" style="points=[[0.145,0.145,0],[0.5,0,0],[0.855,0.145,0],[1,0.5,0],[0.855,0.855,0],[0.5,1,0],[0.145,0.855,0],[0,0.5,0]];shape=mxgraph.bpmn.event;html=1;verticalLabelPosition=bottom;labelBackgroundColor=#ffffff;verticalAlign=top;align=center;perimeter=ellipsePerimeter;outlineConnect=0;aspect=fixed;outline=end;symbol=terminate2;" vertex="1" parent="E1k1lD8S_yY3Wyi8EtwX-2">
          <mxGeometry x="1494" y="240" width="50" height="50" as="geometry" />
        </mxCell>
        <mxCell id="E1k1lD8S_yY3Wyi8EtwX-11" value="" style="points=[[0.145,0.145,0],[0.5,0,0],[0.855,0.145,0],[1,0.5,0],[0.855,0.855,0],[0.5,1,0],[0.145,0.855,0],[0,0.5,0]];shape=mxgraph.bpmn.event;html=1;verticalLabelPosition=bottom;labelBackgroundColor=#ffffff;verticalAlign=top;align=center;perimeter=ellipsePerimeter;outlineConnect=0;aspect=fixed;outline=boundInt;symbol=error;fontSize=24;fontColor=#000000;fillColor=#FFFFFF;" vertex="1" parent="E1k1lD8S_yY3Wyi8EtwX-2">
          <mxGeometry x="220" y="100" width="50" height="50" as="geometry" />
        </mxCell>
        <mxCell id="E1k1lD8S_yY3Wyi8EtwX-12" value="Нет свободного&lt;br&gt;времени&amp;nbsp;" style="text;html=1;strokeColor=none;fillColor=none;align=center;verticalAlign=middle;whiteSpace=wrap;rounded=0;labelBackgroundColor=none;fontSize=12;fontColor=#000000;" vertex="1" parent="E1k1lD8S_yY3Wyi8EtwX-2">
          <mxGeometry x="160" y="70" width="60" height="30" as="geometry" />
        </mxCell>
        <mxCell id="E1k1lD8S_yY3Wyi8EtwX-13" style="edgeStyle=orthogonalEdgeStyle;rounded=0;orthogonalLoop=1;jettySize=auto;html=1;" edge="1" parent="E1k1lD8S_yY3Wyi8EtwX-2" target="E1k1lD8S_yY3Wyi8EtwX-6">
          <mxGeometry relative="1" as="geometry">
            <mxPoint x="80" y="160" as="sourcePoint" />
          </mxGeometry>
        </mxCell>
        <mxCell id="E1k1lD8S_yY3Wyi8EtwX-14" value="&lt;font style=&quot;font-size: 11px;&quot;&gt;Поступил&lt;br&gt;&amp;nbsp;звонок &amp;nbsp;&lt;/font&gt;" style="points=[[0.145,0.145,0],[0.5,0,0],[0.855,0.145,0],[1,0.5,0],[0.855,0.855,0],[0.5,1,0],[0.145,0.855,0],[0,0.5,0]];shape=mxgraph.bpmn.event;html=1;verticalLabelPosition=bottom;labelBackgroundColor=#ffffff;verticalAlign=top;align=center;perimeter=ellipsePerimeter;outlineConnect=0;aspect=fixed;outline=standard;symbol=message;" vertex="1" parent="E1k1lD8S_yY3Wyi8EtwX-2">
          <mxGeometry x="30" y="135" width="50" height="50" as="geometry" />
        </mxCell>
        <mxCell id="E1k1lD8S_yY3Wyi8EtwX-15" style="edgeStyle=orthogonalEdgeStyle;rounded=0;orthogonalLoop=1;jettySize=auto;html=1;entryX=0;entryY=0.5;entryDx=0;entryDy=0;entryPerimeter=0;startArrow=none;startFill=0;endArrow=classic;endFill=1;" edge="1" parent="E1k1lD8S_yY3Wyi8EtwX-2" source="E1k1lD8S_yY3Wyi8EtwX-16" target="E1k1lD8S_yY3Wyi8EtwX-10">
          <mxGeometry relative="1" as="geometry" />
        </mxCell>
        <mxCell id="E1k1lD8S_yY3Wyi8EtwX-16" value="&lt;font style=&quot;font-size: 11px;&quot;&gt;Запись отменена&lt;/font&gt;" style="points=[[0.145,0.145,0],[0.5,0,0],[0.855,0.145,0],[1,0.5,0],[0.855,0.855,0],[0.5,1,0],[0.145,0.855,0],[0,0.5,0]];shape=mxgraph.bpmn.event;html=1;verticalLabelPosition=bottom;labelBackgroundColor=#ffffff;verticalAlign=top;align=center;perimeter=ellipsePerimeter;outlineConnect=0;aspect=fixed;outline=catching;symbol=message;" vertex="1" parent="E1k1lD8S_yY3Wyi8EtwX-2">
          <mxGeometry x="1275" y="240" width="50" height="50" as="geometry" />
        </mxCell>
        <mxCell id="E1k1lD8S_yY3Wyi8EtwX-17" value="&lt;font style=&quot;font-size: 11px;&quot;&gt;Запись подтверждена&lt;/font&gt;" style="points=[[0.145,0.145,0],[0.5,0,0],[0.855,0.145,0],[1,0.5,0],[0.855,0.855,0],[0.5,1,0],[0.145,0.855,0],[0,0.5,0]];shape=mxgraph.bpmn.event;html=1;verticalLabelPosition=bottom;labelBackgroundColor=#ffffff;verticalAlign=top;align=center;perimeter=ellipsePerimeter;outlineConnect=0;aspect=fixed;outline=catching;symbol=message;" vertex="1" parent="E1k1lD8S_yY3Wyi8EtwX-2">
          <mxGeometry x="1390" y="60" width="50" height="50" as="geometry" />
        </mxCell>
        <mxCell id="E1k1lD8S_yY3Wyi8EtwX-18" style="edgeStyle=orthogonalEdgeStyle;rounded=0;orthogonalLoop=1;jettySize=auto;html=1;entryX=0;entryY=0.5;entryDx=0;entryDy=0;entryPerimeter=0;startArrow=none;startFill=0;endArrow=classic;endFill=1;exitX=0.5;exitY=0;exitDx=0;exitDy=0;exitPerimeter=0;" edge="1" parent="E1k1lD8S_yY3Wyi8EtwX-2" source="E1k1lD8S_yY3Wyi8EtwX-22" target="E1k1lD8S_yY3Wyi8EtwX-17">
          <mxGeometry relative="1" as="geometry">
            <mxPoint x="1100" y="160" as="sourcePoint" />
          </mxGeometry>
        </mxCell>
        <mxCell id="E1k1lD8S_yY3Wyi8EtwX-19" value="Да" style="edgeLabel;html=1;align=center;verticalAlign=middle;resizable=0;points=[];fontSize=11;" vertex="1" connectable="0" parent="E1k1lD8S_yY3Wyi8EtwX-18">
          <mxGeometry x="-0.0627" y="1" relative="1" as="geometry">
            <mxPoint as="offset" />
          </mxGeometry>
        </mxCell>
        <mxCell id="E1k1lD8S_yY3Wyi8EtwX-20" style="edgeStyle=orthogonalEdgeStyle;rounded=0;orthogonalLoop=1;jettySize=auto;html=1;entryX=0;entryY=0.5;entryDx=0;entryDy=0;entryPerimeter=0;startArrow=none;startFill=0;endArrow=classic;endFill=1;exitX=1;exitY=0.5;exitDx=0;exitDy=0;exitPerimeter=0;" edge="1" parent="E1k1lD8S_yY3Wyi8EtwX-2" source="E1k1lD8S_yY3Wyi8EtwX-22" target="E1k1lD8S_yY3Wyi8EtwX-16">
          <mxGeometry relative="1" as="geometry">
            <mxPoint x="1075" y="185" as="sourcePoint" />
          </mxGeometry>
        </mxCell>
        <mxCell id="E1k1lD8S_yY3Wyi8EtwX-21" value="Нет" style="edgeLabel;html=1;align=center;verticalAlign=middle;resizable=0;points=[];fontSize=11;" vertex="1" connectable="0" parent="E1k1lD8S_yY3Wyi8EtwX-20">
          <mxGeometry x="-0.5693" y="2" relative="1" as="geometry">
            <mxPoint x="30" y="47" as="offset" />
          </mxGeometry>
        </mxCell>
        <mxCell id="E1k1lD8S_yY3Wyi8EtwX-22" value="&lt;font style=&quot;font-size: 11px;&quot;&gt;Запись подтверждена?&lt;/font&gt;" style="points=[[0.25,0.25,0],[0.5,0,0],[0.75,0.25,0],[1,0.5,0],[0.75,0.75,0],[0.5,1,0],[0.25,0.75,0],[0,0.5,0]];shape=mxgraph.bpmn.gateway2;html=1;verticalLabelPosition=bottom;labelBackgroundColor=#ffffff;verticalAlign=top;align=center;perimeter=rhombusPerimeter;outlineConnect=0;outline=boundInt;symbol=multiple;" vertex="1" parent="E1k1lD8S_yY3Wyi8EtwX-2">
          <mxGeometry x="1050" y="135" width="50" height="50" as="geometry" />
        </mxCell>
        <mxCell id="E1k1lD8S_yY3Wyi8EtwX-23" value="&lt;font style=&quot;font-size: 11px;&quot;&gt;1 день&amp;nbsp;&lt;br&gt;до назначенного&amp;nbsp;&lt;br&gt;приёма&lt;br&gt;&lt;/font&gt;" style="points=[[0.145,0.145,0],[0.5,0,0],[0.855,0.145,0],[1,0.5,0],[0.855,0.855,0],[0.5,1,0],[0.145,0.855,0],[0,0.5,0]];shape=mxgraph.bpmn.event;html=1;verticalLabelPosition=bottom;labelBackgroundColor=#ffffff;verticalAlign=top;align=center;perimeter=ellipsePerimeter;outlineConnect=0;aspect=fixed;outline=catching;symbol=timer;fontSize=11;" vertex="1" parent="E1k1lD8S_yY3Wyi8EtwX-2">
          <mxGeometry x="680" y="135" width="50" height="50" as="geometry" />
        </mxCell>
        <mxCell id="E1k1lD8S_yY3Wyi8EtwX-24" value="Врач" style="swimlane;html=1;startSize=20;horizontal=0;" vertex="1" parent="E1k1lD8S_yY3Wyi8EtwX-1">
          <mxGeometry y="430" width="2380" height="310" as="geometry" />
        </mxCell>
        <mxCell id="E1k1lD8S_yY3Wyi8EtwX-25" value="Пациент" style="swimlane;html=1;startSize=20;horizontal=0;" vertex="1" parent="1">
          <mxGeometry x="50" y="460" width="2380" height="450" as="geometry" />
        </mxCell>
        <mxCell id="E1k1lD8S_yY3Wyi8EtwX-26" style="edgeStyle=orthogonalEdgeStyle;rounded=0;orthogonalLoop=1;jettySize=auto;html=1;entryX=0;entryY=0.5;entryDx=0;entryDy=0;entryPerimeter=0;startArrow=none;startFill=0;endArrow=classic;endFill=1;" edge="1" parent="E1k1lD8S_yY3Wyi8EtwX-25" source="E1k1lD8S_yY3Wyi8EtwX-27">
          <mxGeometry relative="1" as="geometry">
            <mxPoint x="295" y="170" as="targetPoint" />
          </mxGeometry>
        </mxCell>
        <mxCell id="E1k1lD8S_yY3Wyi8EtwX-27" value="Записаться на приём по телефону" style="points=[[0.25,0,0],[0.5,0,0],[0.75,0,0],[1,0.25,0],[1,0.5,0],[1,0.75,0],[0.75,1,0],[0.5,1,0],[0.25,1,0],[0,0.75,0],[0,0.5,0],[0,0.25,0]];shape=mxgraph.bpmn.task;whiteSpace=wrap;rectStyle=rounded;size=10;taskMarker=abstract;fontSize=11;" vertex="1" parent="E1k1lD8S_yY3Wyi8EtwX-25">
          <mxGeometry x="135" y="130" width="120" height="80" as="geometry" />
        </mxCell>
        <mxCell id="E1k1lD8S_yY3Wyi8EtwX-28" style="edgeStyle=orthogonalEdgeStyle;rounded=0;orthogonalLoop=1;jettySize=auto;html=1;" edge="1" parent="E1k1lD8S_yY3Wyi8EtwX-25" source="E1k1lD8S_yY3Wyi8EtwX-29" target="E1k1lD8S_yY3Wyi8EtwX-27">
          <mxGeometry relative="1" as="geometry" />
        </mxCell>
        <mxCell id="E1k1lD8S_yY3Wyi8EtwX-29" value="" style="points=[[0.145,0.145,0],[0.5,0,0],[0.855,0.145,0],[1,0.5,0],[0.855,0.855,0],[0.5,1,0],[0.145,0.855,0],[0,0.5,0]];shape=mxgraph.bpmn.event;html=1;verticalLabelPosition=bottom;labelBackgroundColor=#ffffff;verticalAlign=top;align=center;perimeter=ellipsePerimeter;outlineConnect=0;aspect=fixed;outline=standard;symbol=general;" vertex="1" parent="E1k1lD8S_yY3Wyi8EtwX-25">
          <mxGeometry x="45" y="145" width="50" height="50" as="geometry" />
        </mxCell>
        <mxCell id="E1k1lD8S_yY3Wyi8EtwX-30" value="&lt;font style=&quot;font-size: 11px;&quot;&gt;Плохое самочувствие&lt;/font&gt;" style="text;html=1;strokeColor=none;fillColor=none;align=center;verticalAlign=middle;whiteSpace=wrap;rounded=0;" vertex="1" parent="E1k1lD8S_yY3Wyi8EtwX-25">
          <mxGeometry x="40" y="205" width="60" height="30" as="geometry" />
        </mxCell>
        <mxCell id="E1k1lD8S_yY3Wyi8EtwX-31" style="edgeStyle=orthogonalEdgeStyle;rounded=0;orthogonalLoop=1;jettySize=auto;html=1;fontSize=24;fontColor=#000000;entryX=0;entryY=0.5;entryDx=0;entryDy=0;entryPerimeter=0;" edge="1" parent="E1k1lD8S_yY3Wyi8EtwX-25" source="E1k1lD8S_yY3Wyi8EtwX-32" target="E1k1lD8S_yY3Wyi8EtwX-54">
          <mxGeometry relative="1" as="geometry">
            <mxPoint x="695" y="110" as="targetPoint" />
          </mxGeometry>
        </mxCell>
        <mxCell id="E1k1lD8S_yY3Wyi8EtwX-32" value="Записаться на приём в другой медицинской клиники" style="points=[[0.25,0,0],[0.5,0,0],[0.75,0,0],[1,0.25,0],[1,0.5,0],[1,0.75,0],[0.75,1,0],[0.5,1,0],[0.25,1,0],[0,0.75,0],[0,0.5,0],[0,0.25,0]];shape=mxgraph.bpmn.task;whiteSpace=wrap;rectStyle=rounded;size=10;taskMarker=abstract;labelBackgroundColor=none;fontSize=11;fontColor=#000000;fillColor=#FFFFFF;" vertex="1" parent="E1k1lD8S_yY3Wyi8EtwX-25">
          <mxGeometry x="495" y="70" width="120" height="80" as="geometry" />
        </mxCell>
        <mxCell id="E1k1lD8S_yY3Wyi8EtwX-33" style="edgeStyle=orthogonalEdgeStyle;rounded=0;orthogonalLoop=1;jettySize=auto;html=1;entryX=0;entryY=0.5;entryDx=0;entryDy=0;entryPerimeter=0;" edge="1" parent="E1k1lD8S_yY3Wyi8EtwX-25" source="E1k1lD8S_yY3Wyi8EtwX-34" target="E1k1lD8S_yY3Wyi8EtwX-32">
          <mxGeometry relative="1" as="geometry" />
        </mxCell>
        <mxCell id="E1k1lD8S_yY3Wyi8EtwX-34" value="" style="points=[[0.145,0.145,0],[0.5,0,0],[0.855,0.145,0],[1,0.5,0],[0.855,0.855,0],[0.5,1,0],[0.145,0.855,0],[0,0.5,0]];shape=mxgraph.bpmn.event;html=1;verticalLabelPosition=bottom;labelBackgroundColor=#ffffff;verticalAlign=top;align=center;perimeter=ellipsePerimeter;outlineConnect=0;aspect=fixed;outline=catching;symbol=message;" vertex="1" parent="E1k1lD8S_yY3Wyi8EtwX-25">
          <mxGeometry x="365" y="85" width="50" height="50" as="geometry" />
        </mxCell>
        <mxCell id="E1k1lD8S_yY3Wyi8EtwX-35" style="edgeStyle=orthogonalEdgeStyle;rounded=0;orthogonalLoop=1;jettySize=auto;html=1;entryX=0;entryY=0.5;entryDx=0;entryDy=0;entryPerimeter=0;startArrow=none;startFill=0;endArrow=classic;endFill=1;" edge="1" parent="E1k1lD8S_yY3Wyi8EtwX-25" source="E1k1lD8S_yY3Wyi8EtwX-36" target="E1k1lD8S_yY3Wyi8EtwX-49">
          <mxGeometry relative="1" as="geometry">
            <Array as="points">
              <mxPoint x="815" y="245" />
              <mxPoint x="815" y="125" />
            </Array>
          </mxGeometry>
        </mxCell>
        <mxCell id="E1k1lD8S_yY3Wyi8EtwX-36" value="" style="points=[[0.145,0.145,0],[0.5,0,0],[0.855,0.145,0],[1,0.5,0],[0.855,0.855,0],[0.5,1,0],[0.145,0.855,0],[0,0.5,0]];shape=mxgraph.bpmn.event;html=1;verticalLabelPosition=bottom;labelBackgroundColor=#ffffff;verticalAlign=top;align=center;perimeter=ellipsePerimeter;outlineConnect=0;aspect=fixed;outline=catching;symbol=message;" vertex="1" parent="E1k1lD8S_yY3Wyi8EtwX-25">
          <mxGeometry x="485" y="220" width="50" height="50" as="geometry" />
        </mxCell>
        <mxCell id="E1k1lD8S_yY3Wyi8EtwX-37" style="edgeStyle=orthogonalEdgeStyle;rounded=0;orthogonalLoop=1;jettySize=auto;html=1;entryX=0;entryY=0.5;entryDx=0;entryDy=0;entryPerimeter=0;startArrow=none;startFill=0;endArrow=classic;endFill=1;exitX=0.5;exitY=0;exitDx=0;exitDy=0;exitPerimeter=0;" edge="1" parent="E1k1lD8S_yY3Wyi8EtwX-25" source="E1k1lD8S_yY3Wyi8EtwX-50" target="E1k1lD8S_yY3Wyi8EtwX-34">
          <mxGeometry relative="1" as="geometry">
            <mxPoint x="320" y="145" as="sourcePoint" />
          </mxGeometry>
        </mxCell>
        <mxCell id="E1k1lD8S_yY3Wyi8EtwX-38" style="edgeStyle=orthogonalEdgeStyle;rounded=0;orthogonalLoop=1;jettySize=auto;html=1;entryX=0;entryY=0.5;entryDx=0;entryDy=0;entryPerimeter=0;startArrow=none;startFill=0;endArrow=classic;endFill=1;exitX=1;exitY=0.5;exitDx=0;exitDy=0;exitPerimeter=0;" edge="1" parent="E1k1lD8S_yY3Wyi8EtwX-25" source="E1k1lD8S_yY3Wyi8EtwX-50" target="E1k1lD8S_yY3Wyi8EtwX-36">
          <mxGeometry relative="1" as="geometry">
            <mxPoint x="320" y="195" as="sourcePoint" />
          </mxGeometry>
        </mxCell>
        <mxCell id="E1k1lD8S_yY3Wyi8EtwX-39" style="edgeStyle=orthogonalEdgeStyle;rounded=0;orthogonalLoop=1;jettySize=auto;html=1;entryX=0;entryY=0.5;entryDx=0;entryDy=0;entryPerimeter=0;startArrow=none;startFill=0;endArrow=classic;endFill=1;" edge="1" parent="E1k1lD8S_yY3Wyi8EtwX-25" source="E1k1lD8S_yY3Wyi8EtwX-40" target="E1k1lD8S_yY3Wyi8EtwX-51">
          <mxGeometry relative="1" as="geometry" />
        </mxCell>
        <mxCell id="E1k1lD8S_yY3Wyi8EtwX-40" value="Отменить запись" style="points=[[0.25,0,0],[0.5,0,0],[0.75,0,0],[1,0.25,0],[1,0.5,0],[1,0.75,0],[0.75,1,0],[0.5,1,0],[0.25,1,0],[0,0.75,0],[0,0.5,0],[0,0.25,0]];shape=mxgraph.bpmn.task;whiteSpace=wrap;rectStyle=rounded;size=10;taskMarker=abstract;fontSize=11;" vertex="1" parent="E1k1lD8S_yY3Wyi8EtwX-25">
          <mxGeometry x="1240" y="235" width="120" height="80" as="geometry" />
        </mxCell>
        <mxCell id="E1k1lD8S_yY3Wyi8EtwX-41" style="edgeStyle=orthogonalEdgeStyle;rounded=0;orthogonalLoop=1;jettySize=auto;html=1;entryX=0;entryY=0.5;entryDx=0;entryDy=0;entryPerimeter=0;exitX=0.5;exitY=1;exitDx=0;exitDy=0;exitPerimeter=0;" edge="1" parent="E1k1lD8S_yY3Wyi8EtwX-25" source="E1k1lD8S_yY3Wyi8EtwX-43" target="E1k1lD8S_yY3Wyi8EtwX-40">
          <mxGeometry relative="1" as="geometry" />
        </mxCell>
        <mxCell id="E1k1lD8S_yY3Wyi8EtwX-42" value="Нет" style="edgeLabel;html=1;align=center;verticalAlign=middle;resizable=0;points=[];" vertex="1" connectable="0" parent="E1k1lD8S_yY3Wyi8EtwX-41">
          <mxGeometry x="0.0399" y="1" relative="1" as="geometry">
            <mxPoint x="41" y="1" as="offset" />
          </mxGeometry>
        </mxCell>
        <mxCell id="E1k1lD8S_yY3Wyi8EtwX-43" value="" style="points=[[0.25,0.25,0],[0.5,0,0],[0.75,0.25,0],[1,0.5,0],[0.75,0.75,0],[0.5,1,0],[0.25,0.75,0],[0,0.5,0]];shape=mxgraph.bpmn.gateway2;html=1;verticalLabelPosition=bottom;labelBackgroundColor=#ffffff;verticalAlign=top;align=center;perimeter=rhombusPerimeter;outlineConnect=0;outline=none;symbol=none;gwType=exclusive;" vertex="1" parent="E1k1lD8S_yY3Wyi8EtwX-25">
          <mxGeometry x="1045" y="100" width="50" height="50" as="geometry" />
        </mxCell>
        <mxCell id="E1k1lD8S_yY3Wyi8EtwX-44" value="&lt;font style=&quot;font-size: 11px;&quot;&gt;Подтвердить запись?&lt;/font&gt;" style="text;html=1;strokeColor=none;fillColor=none;align=center;verticalAlign=middle;whiteSpace=wrap;rounded=0;" vertex="1" parent="E1k1lD8S_yY3Wyi8EtwX-25">
          <mxGeometry x="1015" y="70" width="110" height="30" as="geometry" />
        </mxCell>
        <mxCell id="E1k1lD8S_yY3Wyi8EtwX-45" value="Подтвердить запись" style="points=[[0.25,0,0],[0.5,0,0],[0.75,0,0],[1,0.25,0],[1,0.5,0],[1,0.75,0],[0.75,1,0],[0.5,1,0],[0.25,1,0],[0,0.75,0],[0,0.5,0],[0,0.25,0]];shape=mxgraph.bpmn.task;whiteSpace=wrap;rectStyle=rounded;size=10;taskMarker=abstract;fontSize=11;" vertex="1" parent="E1k1lD8S_yY3Wyi8EtwX-25">
          <mxGeometry x="1245" y="85" width="120" height="80" as="geometry" />
        </mxCell>
        <mxCell id="E1k1lD8S_yY3Wyi8EtwX-46" style="edgeStyle=orthogonalEdgeStyle;rounded=0;orthogonalLoop=1;jettySize=auto;html=1;entryX=0;entryY=0.5;entryDx=0;entryDy=0;entryPerimeter=0;exitX=1;exitY=0.5;exitDx=0;exitDy=0;exitPerimeter=0;" edge="1" parent="E1k1lD8S_yY3Wyi8EtwX-25" source="E1k1lD8S_yY3Wyi8EtwX-43" target="E1k1lD8S_yY3Wyi8EtwX-45">
          <mxGeometry relative="1" as="geometry">
            <mxPoint x="1174.9999999999995" y="250" as="targetPoint" />
          </mxGeometry>
        </mxCell>
        <mxCell id="E1k1lD8S_yY3Wyi8EtwX-47" value="Да" style="edgeLabel;html=1;align=center;verticalAlign=middle;resizable=0;points=[];" vertex="1" connectable="0" parent="E1k1lD8S_yY3Wyi8EtwX-46">
          <mxGeometry x="0.1408" y="-1" relative="1" as="geometry">
            <mxPoint x="-16" y="-1" as="offset" />
          </mxGeometry>
        </mxCell>
        <mxCell id="E1k1lD8S_yY3Wyi8EtwX-48" style="edgeStyle=orthogonalEdgeStyle;rounded=0;orthogonalLoop=1;jettySize=auto;html=1;startArrow=none;startFill=0;endArrow=classic;endFill=1;" edge="1" parent="E1k1lD8S_yY3Wyi8EtwX-25" source="E1k1lD8S_yY3Wyi8EtwX-49" target="E1k1lD8S_yY3Wyi8EtwX-43">
          <mxGeometry relative="1" as="geometry" />
        </mxCell>
        <mxCell id="E1k1lD8S_yY3Wyi8EtwX-49" value="" style="points=[[0.145,0.145,0],[0.5,0,0],[0.855,0.145,0],[1,0.5,0],[0.855,0.855,0],[0.5,1,0],[0.145,0.855,0],[0,0.5,0]];shape=mxgraph.bpmn.event;html=1;verticalLabelPosition=bottom;labelBackgroundColor=#ffffff;verticalAlign=top;align=center;perimeter=ellipsePerimeter;outlineConnect=0;aspect=fixed;outline=catching;symbol=message;" vertex="1" parent="E1k1lD8S_yY3Wyi8EtwX-25">
          <mxGeometry x="845" y="100" width="50" height="50" as="geometry" />
        </mxCell>
        <mxCell id="E1k1lD8S_yY3Wyi8EtwX-50" value="Есть &lt;br&gt;свободное время?" style="points=[[0.25,0.25,0],[0.5,0,0],[0.75,0.25,0],[1,0.5,0],[0.75,0.75,0],[0.5,1,0],[0.25,0.75,0],[0,0.5,0]];shape=mxgraph.bpmn.gateway2;html=1;verticalLabelPosition=bottom;labelBackgroundColor=#ffffff;verticalAlign=top;align=center;perimeter=rhombusPerimeter;outlineConnect=0;outline=boundInt;symbol=multiple;" vertex="1" parent="E1k1lD8S_yY3Wyi8EtwX-25">
          <mxGeometry x="295" y="145" width="50" height="50" as="geometry" />
        </mxCell>
        <mxCell id="E1k1lD8S_yY3Wyi8EtwX-51" value="Запись отменена" style="points=[[0.145,0.145,0],[0.5,0,0],[0.855,0.145,0],[1,0.5,0],[0.855,0.855,0],[0.5,1,0],[0.145,0.855,0],[0,0.5,0]];shape=mxgraph.bpmn.event;html=1;verticalLabelPosition=bottom;labelBackgroundColor=#ffffff;verticalAlign=top;align=center;perimeter=ellipsePerimeter;outlineConnect=0;aspect=fixed;outline=end;symbol=terminate2;" vertex="1" parent="E1k1lD8S_yY3Wyi8EtwX-25">
          <mxGeometry x="1535" y="250" width="50" height="50" as="geometry" />
        </mxCell>
        <mxCell id="E1k1lD8S_yY3Wyi8EtwX-52" value="&lt;font style=&quot;font-size: 11px;&quot;&gt;Нет свободного&lt;br&gt;времени&lt;/font&gt;" style="text;html=1;strokeColor=none;fillColor=none;align=center;verticalAlign=middle;whiteSpace=wrap;rounded=0;" vertex="1" parent="E1k1lD8S_yY3Wyi8EtwX-25">
          <mxGeometry x="360" y="45" width="60" height="30" as="geometry" />
        </mxCell>
        <mxCell id="E1k1lD8S_yY3Wyi8EtwX-53" value="&lt;span style=&quot;font-size: 11px;&quot;&gt;Записан на&amp;nbsp;&lt;/span&gt;&lt;span style=&quot;font-size: 11px; background-color: rgb(255, 255, 255);&quot;&gt;приём&lt;/span&gt;" style="text;html=1;strokeColor=none;fillColor=none;align=center;verticalAlign=middle;whiteSpace=wrap;rounded=0;" vertex="1" parent="E1k1lD8S_yY3Wyi8EtwX-25">
          <mxGeometry x="480" y="180" width="60" height="30" as="geometry" />
        </mxCell>
        <mxCell id="E1k1lD8S_yY3Wyi8EtwX-54" value="Записан на&amp;nbsp;приём&amp;nbsp;в&amp;nbsp;&lt;br&gt;другую клинику" style="points=[[0.145,0.145,0],[0.5,0,0],[0.855,0.145,0],[1,0.5,0],[0.855,0.855,0],[0.5,1,0],[0.145,0.855,0],[0,0.5,0]];shape=mxgraph.bpmn.event;html=1;verticalLabelPosition=bottom;labelBackgroundColor=#ffffff;verticalAlign=top;align=center;perimeter=ellipsePerimeter;outlineConnect=0;aspect=fixed;outline=end;symbol=terminate2;fontSize=11;" vertex="1" parent="E1k1lD8S_yY3Wyi8EtwX-25">
          <mxGeometry x="700" y="85" width="50" height="50" as="geometry" />
        </mxCell>
        <mxCell id="E1k1lD8S_yY3Wyi8EtwX-55" value="&lt;font style=&quot;font-size: 11px;&quot;&gt;Звонок для подтверждения записи&amp;nbsp;&lt;/font&gt;" style="text;html=1;strokeColor=none;fillColor=none;align=center;verticalAlign=middle;whiteSpace=wrap;rounded=0;" vertex="1" parent="E1k1lD8S_yY3Wyi8EtwX-25">
          <mxGeometry x="815" y="55" width="110" height="30" as="geometry" />
        </mxCell>
        <mxCell id="E1k1lD8S_yY3Wyi8EtwX-56" style="edgeStyle=orthogonalEdgeStyle;rounded=0;orthogonalLoop=1;jettySize=auto;html=1;dashed=1;exitX=0.5;exitY=1;exitDx=0;exitDy=0;exitPerimeter=0;entryX=0.5;entryY=0;entryDx=0;entryDy=0;entryPerimeter=0;startArrow=oval;startFill=0;endArrow=block;endFill=0;" edge="1" parent="1" source="E1k1lD8S_yY3Wyi8EtwX-27">
          <mxGeometry relative="1" as="geometry">
            <mxPoint x="105" y="1115.0000000000005" as="targetPoint" />
            <Array as="points">
              <mxPoint x="240" y="670" />
              <mxPoint x="240" y="770" />
              <mxPoint x="105" y="770" />
            </Array>
          </mxGeometry>
        </mxCell>
        <mxCell id="E1k1lD8S_yY3Wyi8EtwX-57" style="edgeStyle=orthogonalEdgeStyle;rounded=0;orthogonalLoop=1;jettySize=auto;html=1;fontSize=24;fontColor=#000000;entryX=0.5;entryY=1;entryDx=0;entryDy=0;entryPerimeter=0;dashed=1;startArrow=oval;startFill=0;endArrow=block;endFill=0;" edge="1" parent="1" source="E1k1lD8S_yY3Wyi8EtwX-11" target="E1k1lD8S_yY3Wyi8EtwX-34">
          <mxGeometry relative="1" as="geometry">
            <Array as="points">
              <mxPoint x="285" y="850" />
              <mxPoint x="440" y="850" />
            </Array>
            <mxPoint x="540" y="1290" as="targetPoint" />
          </mxGeometry>
        </mxCell>
        <mxCell id="E1k1lD8S_yY3Wyi8EtwX-58" style="edgeStyle=orthogonalEdgeStyle;rounded=0;orthogonalLoop=1;jettySize=auto;html=1;entryX=0.5;entryY=1;entryDx=0;entryDy=0;entryPerimeter=0;startArrow=oval;startFill=0;endArrow=block;endFill=0;dashed=1;" edge="1" parent="1" source="E1k1lD8S_yY3Wyi8EtwX-4" target="E1k1lD8S_yY3Wyi8EtwX-36">
          <mxGeometry relative="1" as="geometry" />
        </mxCell>
        <mxCell id="E1k1lD8S_yY3Wyi8EtwX-59" style="edgeStyle=orthogonalEdgeStyle;rounded=0;orthogonalLoop=1;jettySize=auto;html=1;entryX=0.5;entryY=1;entryDx=0;entryDy=0;entryPerimeter=0;startArrow=oval;startFill=0;endArrow=block;endFill=0;dashed=1;" edge="1" parent="1" source="E1k1lD8S_yY3Wyi8EtwX-9" target="E1k1lD8S_yY3Wyi8EtwX-49">
          <mxGeometry relative="1" as="geometry" />
        </mxCell>
        <mxCell id="E1k1lD8S_yY3Wyi8EtwX-60" style="edgeStyle=orthogonalEdgeStyle;rounded=0;orthogonalLoop=1;jettySize=auto;html=1;dashed=1;startArrow=oval;startFill=0;endArrow=block;endFill=0;" edge="1" parent="1" source="E1k1lD8S_yY3Wyi8EtwX-45" target="E1k1lD8S_yY3Wyi8EtwX-17">
          <mxGeometry relative="1" as="geometry" />
        </mxCell>
        <mxCell id="E1k1lD8S_yY3Wyi8EtwX-61" style="edgeStyle=orthogonalEdgeStyle;rounded=0;orthogonalLoop=1;jettySize=auto;html=1;dashed=1;startArrow=oval;startFill=0;endArrow=block;endFill=0;" edge="1" parent="1" source="E1k1lD8S_yY3Wyi8EtwX-40" target="E1k1lD8S_yY3Wyi8EtwX-16">
          <mxGeometry relative="1" as="geometry" />
        </mxCell>
      </root>
    </mxGraphModel>
  </diagram>
  <diagram id="326YfQ6A8uz0iwaCt7I8" name="После - BPMN AS-IS">
    <mxGraphModel dx="6660" dy="4533" grid="1" gridSize="10" guides="1" tooltips="1" connect="1" arrows="1" fold="1" page="1" pageScale="1" pageWidth="827" pageHeight="1169" math="0" shadow="0">
      <root>
        <mxCell id="0" />
        <mxCell id="1" parent="0" />
        <mxCell id="U2e4l5wQemaMT4tLWJ_u-86" value="Медицинская клиника&amp;nbsp;&lt;span style=&quot;text-align: start; fill: rgb(144, 101, 176);&quot; data-reactroot=&quot;&quot; class=&quot;notion-enable-hover&quot; data-token-index=&quot;0&quot;&gt;«Вита» имени Е.Л. Яницкой&lt;/span&gt;" style="swimlane;html=1;childLayout=stackLayout;resizeParent=1;resizeParentMax=0;horizontal=1;startSize=20;horizontalStack=0;" parent="1" vertex="1">
          <mxGeometry x="21" y="-210" width="2440" height="750" as="geometry">
            <mxRectangle x="10" y="-620" width="320" height="30" as="alternateBounds" />
          </mxGeometry>
        </mxCell>
        <mxCell id="U2e4l5wQemaMT4tLWJ_u-87" value="Администратор" style="swimlane;html=1;startSize=20;horizontal=0;" parent="U2e4l5wQemaMT4tLWJ_u-86" vertex="1">
          <mxGeometry y="20" width="2440" height="410" as="geometry">
            <mxRectangle y="20" width="2440" height="30" as="alternateBounds" />
          </mxGeometry>
        </mxCell>
        <mxCell id="U2e4l5wQemaMT4tLWJ_u-88" style="edgeStyle=orthogonalEdgeStyle;rounded=0;orthogonalLoop=1;jettySize=auto;html=1;" parent="U2e4l5wQemaMT4tLWJ_u-87" source="U2e4l5wQemaMT4tLWJ_u-89" edge="1">
          <mxGeometry relative="1" as="geometry">
            <mxPoint x="680" y="160.00000000000023" as="targetPoint" />
          </mxGeometry>
        </mxCell>
        <mxCell id="U2e4l5wQemaMT4tLWJ_u-89" value="Записать пациента на приём" style="points=[[0.25,0,0],[0.5,0,0],[0.75,0,0],[1,0.25,0],[1,0.5,0],[1,0.75,0],[0.75,1,0],[0.5,1,0],[0.25,1,0],[0,0.75,0],[0,0.5,0],[0,0.25,0]];shape=mxgraph.bpmn.task;whiteSpace=wrap;rectStyle=rounded;size=10;taskMarker=abstract;fontSize=11;" parent="U2e4l5wQemaMT4tLWJ_u-87" vertex="1">
          <mxGeometry x="450" y="120" width="120" height="80" as="geometry" />
        </mxCell>
        <mxCell id="U2e4l5wQemaMT4tLWJ_u-90" style="edgeStyle=orthogonalEdgeStyle;rounded=0;orthogonalLoop=1;jettySize=auto;html=1;entryX=0;entryY=0.5;entryDx=0;entryDy=0;entryPerimeter=0;" parent="U2e4l5wQemaMT4tLWJ_u-87" source="U2e4l5wQemaMT4tLWJ_u-91" target="U2e4l5wQemaMT4tLWJ_u-89" edge="1">
          <mxGeometry relative="1" as="geometry">
            <mxPoint x="340" y="189.99999999999977" as="targetPoint" />
          </mxGeometry>
        </mxCell>
        <mxCell id="U2e4l5wQemaMT4tLWJ_u-91" value="Найти свободное время для записи на  приём" style="points=[[0.25,0,0],[0.5,0,0],[0.75,0,0],[1,0.25,0],[1,0.5,0],[1,0.75,0],[0.75,1,0],[0.5,1,0],[0.25,1,0],[0,0.75,0],[0,0.5,0],[0,0.25,0]];shape=mxgraph.bpmn.task;whiteSpace=wrap;rectStyle=rounded;size=10;taskMarker=abstract;fontSize=11;" parent="U2e4l5wQemaMT4tLWJ_u-87" vertex="1">
          <mxGeometry x="130" y="120" width="120" height="80" as="geometry" />
        </mxCell>
        <mxCell id="U2e4l5wQemaMT4tLWJ_u-92" style="edgeStyle=orthogonalEdgeStyle;rounded=0;orthogonalLoop=1;jettySize=auto;html=1;" parent="U2e4l5wQemaMT4tLWJ_u-87" target="U2e4l5wQemaMT4tLWJ_u-95" edge="1">
          <mxGeometry relative="1" as="geometry">
            <mxPoint x="730" y="160.00000000000023" as="sourcePoint" />
          </mxGeometry>
        </mxCell>
        <mxCell id="U2e4l5wQemaMT4tLWJ_u-94" style="edgeStyle=orthogonalEdgeStyle;rounded=0;orthogonalLoop=1;jettySize=auto;html=1;startArrow=none;startFill=0;endArrow=classic;endFill=1;" parent="U2e4l5wQemaMT4tLWJ_u-87" source="U2e4l5wQemaMT4tLWJ_u-95" edge="1">
          <mxGeometry relative="1" as="geometry">
            <mxPoint x="1050" y="160" as="targetPoint" />
          </mxGeometry>
        </mxCell>
        <mxCell id="U2e4l5wQemaMT4tLWJ_u-95" value="Подтвердить запись по телефону" style="points=[[0.25,0,0],[0.5,0,0],[0.75,0,0],[1,0.25,0],[1,0.5,0],[1,0.75,0],[0.75,1,0],[0.5,1,0],[0.25,1,0],[0,0.75,0],[0,0.5,0],[0,0.25,0]];shape=mxgraph.bpmn.task;whiteSpace=wrap;rectStyle=rounded;size=10;taskMarker=abstract;fontSize=11;" parent="U2e4l5wQemaMT4tLWJ_u-87" vertex="1">
          <mxGeometry x="810" y="120" width="120" height="80" as="geometry" />
        </mxCell>
        <mxCell id="U2e4l5wQemaMT4tLWJ_u-96" value="Запись отменена" style="points=[[0.145,0.145,0],[0.5,0,0],[0.855,0.145,0],[1,0.5,0],[0.855,0.855,0],[0.5,1,0],[0.145,0.855,0],[0,0.5,0]];shape=mxgraph.bpmn.event;html=1;verticalLabelPosition=bottom;labelBackgroundColor=#ffffff;verticalAlign=top;align=center;perimeter=ellipsePerimeter;outlineConnect=0;aspect=fixed;outline=end;symbol=terminate2;" parent="U2e4l5wQemaMT4tLWJ_u-87" vertex="1">
          <mxGeometry x="1494" y="240" width="50" height="50" as="geometry" />
        </mxCell>
        <mxCell id="U2e4l5wQemaMT4tLWJ_u-97" value="" style="points=[[0.145,0.145,0],[0.5,0,0],[0.855,0.145,0],[1,0.5,0],[0.855,0.855,0],[0.5,1,0],[0.145,0.855,0],[0,0.5,0]];shape=mxgraph.bpmn.event;html=1;verticalLabelPosition=bottom;labelBackgroundColor=#ffffff;verticalAlign=top;align=center;perimeter=ellipsePerimeter;outlineConnect=0;aspect=fixed;outline=boundInt;symbol=error;fontSize=24;fontColor=#000000;fillColor=#FFFFFF;" parent="U2e4l5wQemaMT4tLWJ_u-87" vertex="1">
          <mxGeometry x="220" y="100" width="50" height="50" as="geometry" />
        </mxCell>
        <mxCell id="U2e4l5wQemaMT4tLWJ_u-98" value="Нет свободного&lt;br&gt;времени&amp;nbsp;" style="text;html=1;strokeColor=none;fillColor=none;align=center;verticalAlign=middle;whiteSpace=wrap;rounded=0;labelBackgroundColor=none;fontSize=12;fontColor=#000000;" parent="U2e4l5wQemaMT4tLWJ_u-87" vertex="1">
          <mxGeometry x="160" y="70" width="60" height="30" as="geometry" />
        </mxCell>
        <mxCell id="U2e4l5wQemaMT4tLWJ_u-99" style="edgeStyle=orthogonalEdgeStyle;rounded=0;orthogonalLoop=1;jettySize=auto;html=1;" parent="U2e4l5wQemaMT4tLWJ_u-87" target="U2e4l5wQemaMT4tLWJ_u-91" edge="1">
          <mxGeometry relative="1" as="geometry">
            <mxPoint x="80" y="160" as="sourcePoint" />
          </mxGeometry>
        </mxCell>
        <mxCell id="U2e4l5wQemaMT4tLWJ_u-100" value="&lt;font style=&quot;font-size: 11px;&quot;&gt;Поступил&lt;br&gt;&amp;nbsp;звонок &amp;nbsp;&lt;/font&gt;" style="points=[[0.145,0.145,0],[0.5,0,0],[0.855,0.145,0],[1,0.5,0],[0.855,0.855,0],[0.5,1,0],[0.145,0.855,0],[0,0.5,0]];shape=mxgraph.bpmn.event;html=1;verticalLabelPosition=bottom;labelBackgroundColor=#ffffff;verticalAlign=top;align=center;perimeter=ellipsePerimeter;outlineConnect=0;aspect=fixed;outline=standard;symbol=message;" parent="U2e4l5wQemaMT4tLWJ_u-87" vertex="1">
          <mxGeometry x="30" y="135" width="50" height="50" as="geometry" />
        </mxCell>
        <mxCell id="U2e4l5wQemaMT4tLWJ_u-101" style="edgeStyle=orthogonalEdgeStyle;rounded=0;orthogonalLoop=1;jettySize=auto;html=1;entryX=0;entryY=0.5;entryDx=0;entryDy=0;entryPerimeter=0;startArrow=none;startFill=0;endArrow=classic;endFill=1;" parent="U2e4l5wQemaMT4tLWJ_u-87" source="U2e4l5wQemaMT4tLWJ_u-102" target="U2e4l5wQemaMT4tLWJ_u-96" edge="1">
          <mxGeometry relative="1" as="geometry" />
        </mxCell>
        <mxCell id="U2e4l5wQemaMT4tLWJ_u-102" value="&lt;font style=&quot;font-size: 11px;&quot;&gt;Запись отменена&lt;/font&gt;" style="points=[[0.145,0.145,0],[0.5,0,0],[0.855,0.145,0],[1,0.5,0],[0.855,0.855,0],[0.5,1,0],[0.145,0.855,0],[0,0.5,0]];shape=mxgraph.bpmn.event;html=1;verticalLabelPosition=bottom;labelBackgroundColor=#ffffff;verticalAlign=top;align=center;perimeter=ellipsePerimeter;outlineConnect=0;aspect=fixed;outline=catching;symbol=message;" parent="U2e4l5wQemaMT4tLWJ_u-87" vertex="1">
          <mxGeometry x="1275" y="240" width="50" height="50" as="geometry" />
        </mxCell>
        <mxCell id="U2e4l5wQemaMT4tLWJ_u-103" value="&lt;font style=&quot;font-size: 11px;&quot;&gt;Запись подтверждена&lt;/font&gt;" style="points=[[0.145,0.145,0],[0.5,0,0],[0.855,0.145,0],[1,0.5,0],[0.855,0.855,0],[0.5,1,0],[0.145,0.855,0],[0,0.5,0]];shape=mxgraph.bpmn.event;html=1;verticalLabelPosition=bottom;labelBackgroundColor=#ffffff;verticalAlign=top;align=center;perimeter=ellipsePerimeter;outlineConnect=0;aspect=fixed;outline=catching;symbol=message;" parent="U2e4l5wQemaMT4tLWJ_u-87" vertex="1">
          <mxGeometry x="1390" y="60" width="50" height="50" as="geometry" />
        </mxCell>
        <mxCell id="U2e4l5wQemaMT4tLWJ_u-104" style="edgeStyle=orthogonalEdgeStyle;rounded=0;orthogonalLoop=1;jettySize=auto;html=1;entryX=0;entryY=0.5;entryDx=0;entryDy=0;entryPerimeter=0;startArrow=none;startFill=0;endArrow=classic;endFill=1;exitX=0.5;exitY=0;exitDx=0;exitDy=0;exitPerimeter=0;" parent="U2e4l5wQemaMT4tLWJ_u-87" source="U2e4l5wQemaMT4tLWJ_u-108" target="U2e4l5wQemaMT4tLWJ_u-103" edge="1">
          <mxGeometry relative="1" as="geometry">
            <mxPoint x="1100" y="160" as="sourcePoint" />
          </mxGeometry>
        </mxCell>
        <mxCell id="U2e4l5wQemaMT4tLWJ_u-105" value="Да" style="edgeLabel;html=1;align=center;verticalAlign=middle;resizable=0;points=[];fontSize=11;" parent="U2e4l5wQemaMT4tLWJ_u-104" vertex="1" connectable="0">
          <mxGeometry x="-0.0627" y="1" relative="1" as="geometry">
            <mxPoint as="offset" />
          </mxGeometry>
        </mxCell>
        <mxCell id="U2e4l5wQemaMT4tLWJ_u-106" style="edgeStyle=orthogonalEdgeStyle;rounded=0;orthogonalLoop=1;jettySize=auto;html=1;entryX=0;entryY=0.5;entryDx=0;entryDy=0;entryPerimeter=0;startArrow=none;startFill=0;endArrow=classic;endFill=1;exitX=1;exitY=0.5;exitDx=0;exitDy=0;exitPerimeter=0;" parent="U2e4l5wQemaMT4tLWJ_u-87" source="U2e4l5wQemaMT4tLWJ_u-108" target="U2e4l5wQemaMT4tLWJ_u-102" edge="1">
          <mxGeometry relative="1" as="geometry">
            <mxPoint x="1075" y="185" as="sourcePoint" />
          </mxGeometry>
        </mxCell>
        <mxCell id="U2e4l5wQemaMT4tLWJ_u-107" value="Нет" style="edgeLabel;html=1;align=center;verticalAlign=middle;resizable=0;points=[];fontSize=11;" parent="U2e4l5wQemaMT4tLWJ_u-106" vertex="1" connectable="0">
          <mxGeometry x="-0.5693" y="2" relative="1" as="geometry">
            <mxPoint x="30" y="47" as="offset" />
          </mxGeometry>
        </mxCell>
        <mxCell id="U2e4l5wQemaMT4tLWJ_u-108" value="&lt;font style=&quot;font-size: 11px;&quot;&gt;Запись подтверждена?&lt;/font&gt;" style="points=[[0.25,0.25,0],[0.5,0,0],[0.75,0.25,0],[1,0.5,0],[0.75,0.75,0],[0.5,1,0],[0.25,0.75,0],[0,0.5,0]];shape=mxgraph.bpmn.gateway2;html=1;verticalLabelPosition=bottom;labelBackgroundColor=#ffffff;verticalAlign=top;align=center;perimeter=rhombusPerimeter;outlineConnect=0;outline=boundInt;symbol=multiple;" parent="U2e4l5wQemaMT4tLWJ_u-87" vertex="1">
          <mxGeometry x="1050" y="135" width="50" height="50" as="geometry" />
        </mxCell>
        <mxCell id="U2e4l5wQemaMT4tLWJ_u-175" value="&lt;font style=&quot;font-size: 11px;&quot;&gt;1 день&amp;nbsp;&lt;br&gt;до назначенного&amp;nbsp;&lt;br&gt;приёма&lt;br&gt;&lt;/font&gt;" style="points=[[0.145,0.145,0],[0.5,0,0],[0.855,0.145,0],[1,0.5,0],[0.855,0.855,0],[0.5,1,0],[0.145,0.855,0],[0,0.5,0]];shape=mxgraph.bpmn.event;html=1;verticalLabelPosition=bottom;labelBackgroundColor=#ffffff;verticalAlign=top;align=center;perimeter=ellipsePerimeter;outlineConnect=0;aspect=fixed;outline=catching;symbol=timer;fontSize=11;" parent="U2e4l5wQemaMT4tLWJ_u-87" vertex="1">
          <mxGeometry x="680" y="135" width="50" height="50" as="geometry" />
        </mxCell>
        <mxCell id="U2e4l5wQemaMT4tLWJ_u-109" value="Врач" style="swimlane;html=1;startSize=20;horizontal=0;" parent="U2e4l5wQemaMT4tLWJ_u-86" vertex="1">
          <mxGeometry y="430" width="2440" height="320" as="geometry" />
        </mxCell>
        <mxCell id="fV-J4n7LUkyuCnRKsTBQ-2" value="Пациент&lt;br style=&quot;border-color: var(--border-color); font-size: 11px;&quot;&gt;&lt;span style=&quot;font-size: 11px;&quot;&gt;пришел на приём&lt;/span&gt;" style="points=[[0.145,0.145,0],[0.5,0,0],[0.855,0.145,0],[1,0.5,0],[0.855,0.855,0],[0.5,1,0],[0.145,0.855,0],[0,0.5,0]];shape=mxgraph.bpmn.event;html=1;verticalLabelPosition=bottom;labelBackgroundColor=#ffffff;verticalAlign=top;align=center;perimeter=ellipsePerimeter;outlineConnect=0;aspect=fixed;outline=catching;symbol=message;" parent="U2e4l5wQemaMT4tLWJ_u-109" vertex="1">
          <mxGeometry x="1080" y="135" width="50" height="50" as="geometry" />
        </mxCell>
        <mxCell id="fV-J4n7LUkyuCnRKsTBQ-12" style="edgeStyle=orthogonalEdgeStyle;rounded=0;orthogonalLoop=1;jettySize=auto;html=1;exitX=1;exitY=0.5;exitDx=0;exitDy=0;exitPerimeter=0;" parent="U2e4l5wQemaMT4tLWJ_u-109" source="fV-J4n7LUkyuCnRKsTBQ-3" target="U2e4l5wQemaMT4tLWJ_u-117" edge="1">
          <mxGeometry relative="1" as="geometry" />
        </mxCell>
        <mxCell id="fV-J4n7LUkyuCnRKsTBQ-3" value="Принять пациента " style="points=[[0.25,0,0],[0.5,0,0],[0.75,0,0],[1,0.25,0],[1,0.5,0],[1,0.75,0],[0.75,1,0],[0.5,1,0],[0.25,1,0],[0,0.75,0],[0,0.5,0],[0,0.25,0]];shape=mxgraph.bpmn.task;whiteSpace=wrap;rectStyle=rounded;size=10;taskMarker=abstract;fontSize=11;" parent="U2e4l5wQemaMT4tLWJ_u-109" vertex="1">
          <mxGeometry x="1235" y="120" width="120" height="80" as="geometry" />
        </mxCell>
        <mxCell id="U2e4l5wQemaMT4tLWJ_u-117" value="Поставить диагноз" style="points=[[0.25,0,0],[0.5,0,0],[0.75,0,0],[1,0.25,0],[1,0.5,0],[1,0.75,0],[0.75,1,0],[0.5,1,0],[0.25,1,0],[0,0.75,0],[0,0.5,0],[0,0.25,0]];shape=mxgraph.bpmn.task;whiteSpace=wrap;rectStyle=rounded;size=10;taskMarker=abstract;isLoopSub=1;labelBackgroundColor=#FFFFFF;fontSize=11;fontColor=#000000;fillColor=#FFFFFF;" parent="U2e4l5wQemaMT4tLWJ_u-109" vertex="1">
          <mxGeometry x="1465" y="120" width="120" height="80" as="geometry" />
        </mxCell>
        <mxCell id="U2e4l5wQemaMT4tLWJ_u-113" value="Назначить лечение" style="points=[[0.25,0,0],[0.5,0,0],[0.75,0,0],[1,0.25,0],[1,0.5,0],[1,0.75,0],[0.75,1,0],[0.5,1,0],[0.25,1,0],[0,0.75,0],[0,0.5,0],[0,0.25,0]];shape=mxgraph.bpmn.task;whiteSpace=wrap;rectStyle=rounded;size=10;taskMarker=abstract;fontSize=11;" parent="U2e4l5wQemaMT4tLWJ_u-109" vertex="1">
          <mxGeometry x="1805" y="120" width="120" height="80" as="geometry" />
        </mxCell>
        <mxCell id="U2e4l5wQemaMT4tLWJ_u-130" value="Оформлен&lt;br style=&quot;border-color: var(--border-color);&quot;&gt;протокол осмотра&lt;span style=&quot;background-color: rgb(248, 249, 250);&quot;&gt;&lt;br&gt;&lt;/span&gt;" style="points=[[0.145,0.145,0],[0.5,0,0],[0.855,0.145,0],[1,0.5,0],[0.855,0.855,0],[0.5,1,0],[0.145,0.855,0],[0,0.5,0]];shape=mxgraph.bpmn.event;html=1;verticalLabelPosition=bottom;labelBackgroundColor=#ffffff;verticalAlign=top;align=center;perimeter=ellipsePerimeter;outlineConnect=0;aspect=fixed;outline=end;symbol=terminate2;fontSize=11;" parent="U2e4l5wQemaMT4tLWJ_u-109" vertex="1">
          <mxGeometry x="2020" y="135" width="50" height="50" as="geometry" />
        </mxCell>
        <mxCell id="U2e4l5wQemaMT4tLWJ_u-116" value="&lt;font style=&quot;font-size: 11px;&quot;&gt;Диагноз поставлен&lt;/font&gt;" style="points=[[0.145,0.145,0],[0.5,0,0],[0.855,0.145,0],[1,0.5,0],[0.855,0.855,0],[0.5,1,0],[0.145,0.855,0],[0,0.5,0]];shape=mxgraph.bpmn.event;html=1;verticalLabelPosition=bottom;labelBackgroundColor=#ffffff;verticalAlign=top;align=center;perimeter=ellipsePerimeter;outlineConnect=0;aspect=fixed;outline=throwing;symbol=general;" parent="U2e4l5wQemaMT4tLWJ_u-109" vertex="1">
          <mxGeometry x="1670" y="135" width="50" height="50" as="geometry" />
        </mxCell>
        <mxCell id="fV-J4n7LUkyuCnRKsTBQ-11" style="edgeStyle=orthogonalEdgeStyle;rounded=0;orthogonalLoop=1;jettySize=auto;html=1;exitX=1;exitY=0.5;exitDx=0;exitDy=0;exitPerimeter=0;entryX=0;entryY=0.5;entryDx=0;entryDy=0;entryPerimeter=0;" parent="U2e4l5wQemaMT4tLWJ_u-109" source="fV-J4n7LUkyuCnRKsTBQ-2" target="fV-J4n7LUkyuCnRKsTBQ-3" edge="1">
          <mxGeometry relative="1" as="geometry" />
        </mxCell>
        <mxCell id="fV-J4n7LUkyuCnRKsTBQ-16" style="edgeStyle=orthogonalEdgeStyle;rounded=0;orthogonalLoop=1;jettySize=auto;html=1;exitX=1;exitY=0.5;exitDx=0;exitDy=0;exitPerimeter=0;entryX=0;entryY=0.5;entryDx=0;entryDy=0;entryPerimeter=0;" parent="U2e4l5wQemaMT4tLWJ_u-109" source="U2e4l5wQemaMT4tLWJ_u-113" target="U2e4l5wQemaMT4tLWJ_u-130" edge="1">
          <mxGeometry relative="1" as="geometry" />
        </mxCell>
        <mxCell id="fV-J4n7LUkyuCnRKsTBQ-18" style="edgeStyle=orthogonalEdgeStyle;rounded=0;orthogonalLoop=1;jettySize=auto;html=1;exitX=1;exitY=0.5;exitDx=0;exitDy=0;exitPerimeter=0;entryX=0;entryY=0.5;entryDx=0;entryDy=0;entryPerimeter=0;" parent="U2e4l5wQemaMT4tLWJ_u-109" source="U2e4l5wQemaMT4tLWJ_u-116" target="U2e4l5wQemaMT4tLWJ_u-113" edge="1">
          <mxGeometry relative="1" as="geometry" />
        </mxCell>
        <mxCell id="s0zrt9FN51rbFB7kPfMg-2" style="edgeStyle=orthogonalEdgeStyle;rounded=0;orthogonalLoop=1;jettySize=auto;html=1;exitX=1;exitY=0.5;exitDx=0;exitDy=0;exitPerimeter=0;entryX=0;entryY=0.5;entryDx=0;entryDy=0;entryPerimeter=0;" parent="U2e4l5wQemaMT4tLWJ_u-109" source="U2e4l5wQemaMT4tLWJ_u-117" target="U2e4l5wQemaMT4tLWJ_u-116" edge="1">
          <mxGeometry relative="1" as="geometry" />
        </mxCell>
        <mxCell id="s0zrt9FN51rbFB7kPfMg-3" style="edgeStyle=orthogonalEdgeStyle;rounded=0;orthogonalLoop=1;jettySize=auto;html=1;exitX=1;exitY=0.5;exitDx=0;exitDy=0;exitPerimeter=0;entryX=0;entryY=0.5;entryDx=0;entryDy=0;entryPerimeter=0;" parent="U2e4l5wQemaMT4tLWJ_u-86" source="U2e4l5wQemaMT4tLWJ_u-103" target="fV-J4n7LUkyuCnRKsTBQ-2" edge="1">
          <mxGeometry relative="1" as="geometry">
            <Array as="points">
              <mxPoint x="1630" y="105" />
              <mxPoint x="1630" y="460" />
              <mxPoint x="1030" y="460" />
              <mxPoint x="1030" y="590" />
            </Array>
          </mxGeometry>
        </mxCell>
        <mxCell id="U2e4l5wQemaMT4tLWJ_u-122" value="Пациент" style="swimlane;html=1;startSize=20;horizontal=0;" parent="1" vertex="1">
          <mxGeometry x="21" y="-710" width="2440" height="450" as="geometry" />
        </mxCell>
        <mxCell id="U2e4l5wQemaMT4tLWJ_u-123" style="edgeStyle=orthogonalEdgeStyle;rounded=0;orthogonalLoop=1;jettySize=auto;html=1;entryX=0;entryY=0.5;entryDx=0;entryDy=0;entryPerimeter=0;startArrow=none;startFill=0;endArrow=classic;endFill=1;" parent="U2e4l5wQemaMT4tLWJ_u-122" source="U2e4l5wQemaMT4tLWJ_u-124" edge="1">
          <mxGeometry relative="1" as="geometry">
            <mxPoint x="295" y="170" as="targetPoint" />
          </mxGeometry>
        </mxCell>
        <mxCell id="U2e4l5wQemaMT4tLWJ_u-124" value="Записаться на приём по телефону" style="points=[[0.25,0,0],[0.5,0,0],[0.75,0,0],[1,0.25,0],[1,0.5,0],[1,0.75,0],[0.75,1,0],[0.5,1,0],[0.25,1,0],[0,0.75,0],[0,0.5,0],[0,0.25,0]];shape=mxgraph.bpmn.task;whiteSpace=wrap;rectStyle=rounded;size=10;taskMarker=abstract;fontSize=11;" parent="U2e4l5wQemaMT4tLWJ_u-122" vertex="1">
          <mxGeometry x="135" y="130" width="120" height="80" as="geometry" />
        </mxCell>
        <mxCell id="U2e4l5wQemaMT4tLWJ_u-125" style="edgeStyle=orthogonalEdgeStyle;rounded=0;orthogonalLoop=1;jettySize=auto;html=1;" parent="U2e4l5wQemaMT4tLWJ_u-122" source="U2e4l5wQemaMT4tLWJ_u-126" target="U2e4l5wQemaMT4tLWJ_u-124" edge="1">
          <mxGeometry relative="1" as="geometry" />
        </mxCell>
        <mxCell id="U2e4l5wQemaMT4tLWJ_u-126" value="" style="points=[[0.145,0.145,0],[0.5,0,0],[0.855,0.145,0],[1,0.5,0],[0.855,0.855,0],[0.5,1,0],[0.145,0.855,0],[0,0.5,0]];shape=mxgraph.bpmn.event;html=1;verticalLabelPosition=bottom;labelBackgroundColor=#ffffff;verticalAlign=top;align=center;perimeter=ellipsePerimeter;outlineConnect=0;aspect=fixed;outline=standard;symbol=general;" parent="U2e4l5wQemaMT4tLWJ_u-122" vertex="1">
          <mxGeometry x="45" y="145" width="50" height="50" as="geometry" />
        </mxCell>
        <mxCell id="U2e4l5wQemaMT4tLWJ_u-129" value="&lt;font style=&quot;font-size: 11px;&quot;&gt;Плохое самочувствие&lt;/font&gt;" style="text;html=1;strokeColor=none;fillColor=none;align=center;verticalAlign=middle;whiteSpace=wrap;rounded=0;" parent="U2e4l5wQemaMT4tLWJ_u-122" vertex="1">
          <mxGeometry x="40" y="205" width="60" height="30" as="geometry" />
        </mxCell>
        <mxCell id="U2e4l5wQemaMT4tLWJ_u-133" style="edgeStyle=orthogonalEdgeStyle;rounded=0;orthogonalLoop=1;jettySize=auto;html=1;fontSize=24;fontColor=#000000;entryX=0;entryY=0.5;entryDx=0;entryDy=0;entryPerimeter=0;" parent="U2e4l5wQemaMT4tLWJ_u-122" source="U2e4l5wQemaMT4tLWJ_u-134" target="U2e4l5wQemaMT4tLWJ_u-159" edge="1">
          <mxGeometry relative="1" as="geometry">
            <mxPoint x="695" y="110" as="targetPoint" />
          </mxGeometry>
        </mxCell>
        <mxCell id="U2e4l5wQemaMT4tLWJ_u-134" value="Записаться на приём в другой медицинской клиники" style="points=[[0.25,0,0],[0.5,0,0],[0.75,0,0],[1,0.25,0],[1,0.5,0],[1,0.75,0],[0.75,1,0],[0.5,1,0],[0.25,1,0],[0,0.75,0],[0,0.5,0],[0,0.25,0]];shape=mxgraph.bpmn.task;whiteSpace=wrap;rectStyle=rounded;size=10;taskMarker=abstract;labelBackgroundColor=none;fontSize=11;fontColor=#000000;fillColor=#FFFFFF;" parent="U2e4l5wQemaMT4tLWJ_u-122" vertex="1">
          <mxGeometry x="495" y="70" width="120" height="80" as="geometry" />
        </mxCell>
        <mxCell id="U2e4l5wQemaMT4tLWJ_u-135" style="edgeStyle=orthogonalEdgeStyle;rounded=0;orthogonalLoop=1;jettySize=auto;html=1;entryX=0;entryY=0.5;entryDx=0;entryDy=0;entryPerimeter=0;" parent="U2e4l5wQemaMT4tLWJ_u-122" source="U2e4l5wQemaMT4tLWJ_u-136" target="U2e4l5wQemaMT4tLWJ_u-134" edge="1">
          <mxGeometry relative="1" as="geometry" />
        </mxCell>
        <mxCell id="U2e4l5wQemaMT4tLWJ_u-136" value="" style="points=[[0.145,0.145,0],[0.5,0,0],[0.855,0.145,0],[1,0.5,0],[0.855,0.855,0],[0.5,1,0],[0.145,0.855,0],[0,0.5,0]];shape=mxgraph.bpmn.event;html=1;verticalLabelPosition=bottom;labelBackgroundColor=#ffffff;verticalAlign=top;align=center;perimeter=ellipsePerimeter;outlineConnect=0;aspect=fixed;outline=catching;symbol=message;" parent="U2e4l5wQemaMT4tLWJ_u-122" vertex="1">
          <mxGeometry x="365" y="85" width="50" height="50" as="geometry" />
        </mxCell>
        <mxCell id="U2e4l5wQemaMT4tLWJ_u-139" style="edgeStyle=orthogonalEdgeStyle;rounded=0;orthogonalLoop=1;jettySize=auto;html=1;entryX=0;entryY=0.5;entryDx=0;entryDy=0;entryPerimeter=0;startArrow=none;startFill=0;endArrow=classic;endFill=1;" parent="U2e4l5wQemaMT4tLWJ_u-122" source="U2e4l5wQemaMT4tLWJ_u-140" target="U2e4l5wQemaMT4tLWJ_u-154" edge="1">
          <mxGeometry relative="1" as="geometry">
            <Array as="points">
              <mxPoint x="815" y="245" />
              <mxPoint x="815" y="125" />
            </Array>
          </mxGeometry>
        </mxCell>
        <mxCell id="U2e4l5wQemaMT4tLWJ_u-140" value="" style="points=[[0.145,0.145,0],[0.5,0,0],[0.855,0.145,0],[1,0.5,0],[0.855,0.855,0],[0.5,1,0],[0.145,0.855,0],[0,0.5,0]];shape=mxgraph.bpmn.event;html=1;verticalLabelPosition=bottom;labelBackgroundColor=#ffffff;verticalAlign=top;align=center;perimeter=ellipsePerimeter;outlineConnect=0;aspect=fixed;outline=catching;symbol=message;" parent="U2e4l5wQemaMT4tLWJ_u-122" vertex="1">
          <mxGeometry x="485" y="220" width="50" height="50" as="geometry" />
        </mxCell>
        <mxCell id="U2e4l5wQemaMT4tLWJ_u-141" style="edgeStyle=orthogonalEdgeStyle;rounded=0;orthogonalLoop=1;jettySize=auto;html=1;entryX=0;entryY=0.5;entryDx=0;entryDy=0;entryPerimeter=0;startArrow=none;startFill=0;endArrow=classic;endFill=1;exitX=0.5;exitY=0;exitDx=0;exitDy=0;exitPerimeter=0;" parent="U2e4l5wQemaMT4tLWJ_u-122" source="U2e4l5wQemaMT4tLWJ_u-155" target="U2e4l5wQemaMT4tLWJ_u-136" edge="1">
          <mxGeometry relative="1" as="geometry">
            <mxPoint x="320" y="145" as="sourcePoint" />
          </mxGeometry>
        </mxCell>
        <mxCell id="U2e4l5wQemaMT4tLWJ_u-142" style="edgeStyle=orthogonalEdgeStyle;rounded=0;orthogonalLoop=1;jettySize=auto;html=1;entryX=0;entryY=0.5;entryDx=0;entryDy=0;entryPerimeter=0;startArrow=none;startFill=0;endArrow=classic;endFill=1;exitX=1;exitY=0.5;exitDx=0;exitDy=0;exitPerimeter=0;" parent="U2e4l5wQemaMT4tLWJ_u-122" source="U2e4l5wQemaMT4tLWJ_u-155" target="U2e4l5wQemaMT4tLWJ_u-140" edge="1">
          <mxGeometry relative="1" as="geometry">
            <mxPoint x="320" y="195" as="sourcePoint" />
          </mxGeometry>
        </mxCell>
        <mxCell id="U2e4l5wQemaMT4tLWJ_u-143" style="edgeStyle=orthogonalEdgeStyle;rounded=0;orthogonalLoop=1;jettySize=auto;html=1;entryX=0;entryY=0.5;entryDx=0;entryDy=0;entryPerimeter=0;startArrow=none;startFill=0;endArrow=classic;endFill=1;" parent="U2e4l5wQemaMT4tLWJ_u-122" source="U2e4l5wQemaMT4tLWJ_u-144" target="U2e4l5wQemaMT4tLWJ_u-156" edge="1">
          <mxGeometry relative="1" as="geometry" />
        </mxCell>
        <mxCell id="U2e4l5wQemaMT4tLWJ_u-144" value="Отменить запись" style="points=[[0.25,0,0],[0.5,0,0],[0.75,0,0],[1,0.25,0],[1,0.5,0],[1,0.75,0],[0.75,1,0],[0.5,1,0],[0.25,1,0],[0,0.75,0],[0,0.5,0],[0,0.25,0]];shape=mxgraph.bpmn.task;whiteSpace=wrap;rectStyle=rounded;size=10;taskMarker=abstract;fontSize=11;" parent="U2e4l5wQemaMT4tLWJ_u-122" vertex="1">
          <mxGeometry x="1240" y="235" width="120" height="80" as="geometry" />
        </mxCell>
        <mxCell id="U2e4l5wQemaMT4tLWJ_u-145" style="edgeStyle=orthogonalEdgeStyle;rounded=0;orthogonalLoop=1;jettySize=auto;html=1;entryX=0;entryY=0.5;entryDx=0;entryDy=0;entryPerimeter=0;exitX=0.5;exitY=1;exitDx=0;exitDy=0;exitPerimeter=0;" parent="U2e4l5wQemaMT4tLWJ_u-122" source="U2e4l5wQemaMT4tLWJ_u-147" target="U2e4l5wQemaMT4tLWJ_u-144" edge="1">
          <mxGeometry relative="1" as="geometry" />
        </mxCell>
        <mxCell id="U2e4l5wQemaMT4tLWJ_u-146" value="Нет" style="edgeLabel;html=1;align=center;verticalAlign=middle;resizable=0;points=[];" parent="U2e4l5wQemaMT4tLWJ_u-145" vertex="1" connectable="0">
          <mxGeometry x="0.0399" y="1" relative="1" as="geometry">
            <mxPoint x="41" y="1" as="offset" />
          </mxGeometry>
        </mxCell>
        <mxCell id="U2e4l5wQemaMT4tLWJ_u-147" value="" style="points=[[0.25,0.25,0],[0.5,0,0],[0.75,0.25,0],[1,0.5,0],[0.75,0.75,0],[0.5,1,0],[0.25,0.75,0],[0,0.5,0]];shape=mxgraph.bpmn.gateway2;html=1;verticalLabelPosition=bottom;labelBackgroundColor=#ffffff;verticalAlign=top;align=center;perimeter=rhombusPerimeter;outlineConnect=0;outline=none;symbol=none;gwType=exclusive;" parent="U2e4l5wQemaMT4tLWJ_u-122" vertex="1">
          <mxGeometry x="1045" y="100" width="50" height="50" as="geometry" />
        </mxCell>
        <mxCell id="U2e4l5wQemaMT4tLWJ_u-148" value="&lt;font style=&quot;font-size: 11px;&quot;&gt;Подтвердить запись?&lt;/font&gt;" style="text;html=1;strokeColor=none;fillColor=none;align=center;verticalAlign=middle;whiteSpace=wrap;rounded=0;" parent="U2e4l5wQemaMT4tLWJ_u-122" vertex="1">
          <mxGeometry x="1015" y="70" width="110" height="30" as="geometry" />
        </mxCell>
        <mxCell id="U2e4l5wQemaMT4tLWJ_u-150" value="Подтвердить запись" style="points=[[0.25,0,0],[0.5,0,0],[0.75,0,0],[1,0.25,0],[1,0.5,0],[1,0.75,0],[0.75,1,0],[0.5,1,0],[0.25,1,0],[0,0.75,0],[0,0.5,0],[0,0.25,0]];shape=mxgraph.bpmn.task;whiteSpace=wrap;rectStyle=rounded;size=10;taskMarker=abstract;fontSize=11;" parent="U2e4l5wQemaMT4tLWJ_u-122" vertex="1">
          <mxGeometry x="1245" y="85" width="120" height="80" as="geometry" />
        </mxCell>
        <mxCell id="U2e4l5wQemaMT4tLWJ_u-151" style="edgeStyle=orthogonalEdgeStyle;rounded=0;orthogonalLoop=1;jettySize=auto;html=1;entryX=0;entryY=0.5;entryDx=0;entryDy=0;entryPerimeter=0;exitX=1;exitY=0.5;exitDx=0;exitDy=0;exitPerimeter=0;" parent="U2e4l5wQemaMT4tLWJ_u-122" source="U2e4l5wQemaMT4tLWJ_u-147" target="U2e4l5wQemaMT4tLWJ_u-150" edge="1">
          <mxGeometry relative="1" as="geometry">
            <mxPoint x="1174.9999999999995" y="250" as="targetPoint" />
          </mxGeometry>
        </mxCell>
        <mxCell id="U2e4l5wQemaMT4tLWJ_u-152" value="Да" style="edgeLabel;html=1;align=center;verticalAlign=middle;resizable=0;points=[];" parent="U2e4l5wQemaMT4tLWJ_u-151" vertex="1" connectable="0">
          <mxGeometry x="0.1408" y="-1" relative="1" as="geometry">
            <mxPoint x="-16" y="-1" as="offset" />
          </mxGeometry>
        </mxCell>
        <mxCell id="U2e4l5wQemaMT4tLWJ_u-153" style="edgeStyle=orthogonalEdgeStyle;rounded=0;orthogonalLoop=1;jettySize=auto;html=1;startArrow=none;startFill=0;endArrow=classic;endFill=1;" parent="U2e4l5wQemaMT4tLWJ_u-122" source="U2e4l5wQemaMT4tLWJ_u-154" target="U2e4l5wQemaMT4tLWJ_u-147" edge="1">
          <mxGeometry relative="1" as="geometry" />
        </mxCell>
        <mxCell id="U2e4l5wQemaMT4tLWJ_u-154" value="" style="points=[[0.145,0.145,0],[0.5,0,0],[0.855,0.145,0],[1,0.5,0],[0.855,0.855,0],[0.5,1,0],[0.145,0.855,0],[0,0.5,0]];shape=mxgraph.bpmn.event;html=1;verticalLabelPosition=bottom;labelBackgroundColor=#ffffff;verticalAlign=top;align=center;perimeter=ellipsePerimeter;outlineConnect=0;aspect=fixed;outline=catching;symbol=message;" parent="U2e4l5wQemaMT4tLWJ_u-122" vertex="1">
          <mxGeometry x="845" y="100" width="50" height="50" as="geometry" />
        </mxCell>
        <mxCell id="U2e4l5wQemaMT4tLWJ_u-155" value="Есть &lt;br&gt;свободное время?" style="points=[[0.25,0.25,0],[0.5,0,0],[0.75,0.25,0],[1,0.5,0],[0.75,0.75,0],[0.5,1,0],[0.25,0.75,0],[0,0.5,0]];shape=mxgraph.bpmn.gateway2;html=1;verticalLabelPosition=bottom;labelBackgroundColor=#ffffff;verticalAlign=top;align=center;perimeter=rhombusPerimeter;outlineConnect=0;outline=boundInt;symbol=multiple;" parent="U2e4l5wQemaMT4tLWJ_u-122" vertex="1">
          <mxGeometry x="295" y="145" width="50" height="50" as="geometry" />
        </mxCell>
        <mxCell id="U2e4l5wQemaMT4tLWJ_u-156" value="Запись отменена" style="points=[[0.145,0.145,0],[0.5,0,0],[0.855,0.145,0],[1,0.5,0],[0.855,0.855,0],[0.5,1,0],[0.145,0.855,0],[0,0.5,0]];shape=mxgraph.bpmn.event;html=1;verticalLabelPosition=bottom;labelBackgroundColor=#ffffff;verticalAlign=top;align=center;perimeter=ellipsePerimeter;outlineConnect=0;aspect=fixed;outline=end;symbol=terminate2;" parent="U2e4l5wQemaMT4tLWJ_u-122" vertex="1">
          <mxGeometry x="1535" y="250" width="50" height="50" as="geometry" />
        </mxCell>
        <mxCell id="U2e4l5wQemaMT4tLWJ_u-157" value="&lt;font style=&quot;font-size: 11px;&quot;&gt;Нет свободного&lt;br&gt;времени&lt;/font&gt;" style="text;html=1;strokeColor=none;fillColor=none;align=center;verticalAlign=middle;whiteSpace=wrap;rounded=0;" parent="U2e4l5wQemaMT4tLWJ_u-122" vertex="1">
          <mxGeometry x="360" y="45" width="60" height="30" as="geometry" />
        </mxCell>
        <mxCell id="U2e4l5wQemaMT4tLWJ_u-158" value="&lt;span style=&quot;font-size: 11px;&quot;&gt;Записан на&amp;nbsp;&lt;/span&gt;&lt;span style=&quot;font-size: 11px; background-color: rgb(255, 255, 255);&quot;&gt;приём&lt;/span&gt;" style="text;html=1;strokeColor=none;fillColor=none;align=center;verticalAlign=middle;whiteSpace=wrap;rounded=0;" parent="U2e4l5wQemaMT4tLWJ_u-122" vertex="1">
          <mxGeometry x="480" y="180" width="60" height="30" as="geometry" />
        </mxCell>
        <mxCell id="U2e4l5wQemaMT4tLWJ_u-159" value="Записан на&amp;nbsp;приём&amp;nbsp;в&amp;nbsp;&lt;br&gt;другую клинику" style="points=[[0.145,0.145,0],[0.5,0,0],[0.855,0.145,0],[1,0.5,0],[0.855,0.855,0],[0.5,1,0],[0.145,0.855,0],[0,0.5,0]];shape=mxgraph.bpmn.event;html=1;verticalLabelPosition=bottom;labelBackgroundColor=#ffffff;verticalAlign=top;align=center;perimeter=ellipsePerimeter;outlineConnect=0;aspect=fixed;outline=end;symbol=terminate2;fontSize=11;" parent="U2e4l5wQemaMT4tLWJ_u-122" vertex="1">
          <mxGeometry x="700" y="85" width="50" height="50" as="geometry" />
        </mxCell>
        <mxCell id="U2e4l5wQemaMT4tLWJ_u-160" value="&lt;font style=&quot;font-size: 11px;&quot;&gt;Звонок для подтверждения записи&amp;nbsp;&lt;/font&gt;" style="text;html=1;strokeColor=none;fillColor=none;align=center;verticalAlign=middle;whiteSpace=wrap;rounded=0;" parent="U2e4l5wQemaMT4tLWJ_u-122" vertex="1">
          <mxGeometry x="815" y="55" width="110" height="30" as="geometry" />
        </mxCell>
        <mxCell id="U2e4l5wQemaMT4tLWJ_u-128" value="Прийти на приём" style="points=[[0.25,0,0],[0.5,0,0],[0.75,0,0],[1,0.25,0],[1,0.5,0],[1,0.75,0],[0.75,1,0],[0.5,1,0],[0.25,1,0],[0,0.75,0],[0,0.5,0],[0,0.25,0]];shape=mxgraph.bpmn.task;whiteSpace=wrap;rectStyle=rounded;size=10;taskMarker=abstract;fontSize=11;" parent="U2e4l5wQemaMT4tLWJ_u-122" vertex="1">
          <mxGeometry x="1610" y="85" width="120" height="80" as="geometry" />
        </mxCell>
        <mxCell id="U2e4l5wQemaMT4tLWJ_u-176" value="В день &lt;br&gt;записи на&amp;nbsp;приём" style="points=[[0.145,0.145,0],[0.5,0,0],[0.855,0.145,0],[1,0.5,0],[0.855,0.855,0],[0.5,1,0],[0.145,0.855,0],[0,0.5,0]];shape=mxgraph.bpmn.event;html=1;verticalLabelPosition=bottom;labelBackgroundColor=#ffffff;verticalAlign=top;align=center;perimeter=ellipsePerimeter;outlineConnect=0;aspect=fixed;outline=catching;symbol=timer;fontSize=11;" parent="U2e4l5wQemaMT4tLWJ_u-122" vertex="1">
          <mxGeometry x="1460" y="100" width="50" height="50" as="geometry" />
        </mxCell>
        <mxCell id="U2e4l5wQemaMT4tLWJ_u-120" value="&lt;font style=&quot;font-size: 11px;&quot;&gt;Приём завершён&lt;/font&gt;" style="points=[[0.145,0.145,0],[0.5,0,0],[0.855,0.145,0],[1,0.5,0],[0.855,0.855,0],[0.5,1,0],[0.145,0.855,0],[0,0.5,0]];shape=mxgraph.bpmn.event;html=1;verticalLabelPosition=bottom;labelBackgroundColor=#ffffff;verticalAlign=top;align=center;perimeter=ellipsePerimeter;outlineConnect=0;aspect=fixed;outline=end;symbol=terminate2;" parent="U2e4l5wQemaMT4tLWJ_u-122" vertex="1">
          <mxGeometry x="2017" y="100" width="50" height="50" as="geometry" />
        </mxCell>
        <mxCell id="U2e4l5wQemaMT4tLWJ_u-138" value="&lt;font style=&quot;font-size: 11px;&quot;&gt;Лечение назначено&lt;/font&gt;" style="points=[[0.145,0.145,0],[0.5,0,0],[0.855,0.145,0],[1,0.5,0],[0.855,0.855,0],[0.5,1,0],[0.145,0.855,0],[0,0.5,0]];shape=mxgraph.bpmn.event;html=1;verticalLabelPosition=top;labelBackgroundColor=#ffffff;verticalAlign=bottom;align=center;perimeter=ellipsePerimeter;outlineConnect=0;aspect=fixed;outline=catching;symbol=message;labelPosition=center;" parent="U2e4l5wQemaMT4tLWJ_u-122" vertex="1">
          <mxGeometry x="1840" y="100" width="50" height="50" as="geometry" />
        </mxCell>
        <mxCell id="fV-J4n7LUkyuCnRKsTBQ-7" style="edgeStyle=orthogonalEdgeStyle;rounded=0;orthogonalLoop=1;jettySize=auto;html=1;exitX=1;exitY=0.5;exitDx=0;exitDy=0;exitPerimeter=0;entryX=0;entryY=0.5;entryDx=0;entryDy=0;entryPerimeter=0;" parent="U2e4l5wQemaMT4tLWJ_u-122" source="U2e4l5wQemaMT4tLWJ_u-150" target="U2e4l5wQemaMT4tLWJ_u-176" edge="1">
          <mxGeometry relative="1" as="geometry" />
        </mxCell>
        <mxCell id="fV-J4n7LUkyuCnRKsTBQ-8" style="edgeStyle=orthogonalEdgeStyle;rounded=0;orthogonalLoop=1;jettySize=auto;html=1;exitX=1;exitY=0.5;exitDx=0;exitDy=0;exitPerimeter=0;entryX=0;entryY=0.5;entryDx=0;entryDy=0;entryPerimeter=0;" parent="U2e4l5wQemaMT4tLWJ_u-122" source="U2e4l5wQemaMT4tLWJ_u-176" target="U2e4l5wQemaMT4tLWJ_u-128" edge="1">
          <mxGeometry relative="1" as="geometry" />
        </mxCell>
        <mxCell id="fV-J4n7LUkyuCnRKsTBQ-23" style="edgeStyle=orthogonalEdgeStyle;rounded=0;orthogonalLoop=1;jettySize=auto;html=1;exitX=1;exitY=0.5;exitDx=0;exitDy=0;exitPerimeter=0;entryX=0;entryY=0.5;entryDx=0;entryDy=0;entryPerimeter=0;" parent="U2e4l5wQemaMT4tLWJ_u-122" source="U2e4l5wQemaMT4tLWJ_u-138" target="U2e4l5wQemaMT4tLWJ_u-120" edge="1">
          <mxGeometry relative="1" as="geometry" />
        </mxCell>
        <mxCell id="s0zrt9FN51rbFB7kPfMg-1" style="edgeStyle=orthogonalEdgeStyle;rounded=0;orthogonalLoop=1;jettySize=auto;html=1;exitX=1;exitY=0.5;exitDx=0;exitDy=0;exitPerimeter=0;entryX=0;entryY=0.5;entryDx=0;entryDy=0;entryPerimeter=0;" parent="U2e4l5wQemaMT4tLWJ_u-122" source="U2e4l5wQemaMT4tLWJ_u-128" target="U2e4l5wQemaMT4tLWJ_u-138" edge="1">
          <mxGeometry relative="1" as="geometry" />
        </mxCell>
        <mxCell id="U2e4l5wQemaMT4tLWJ_u-162" style="edgeStyle=orthogonalEdgeStyle;rounded=0;orthogonalLoop=1;jettySize=auto;html=1;dashed=1;exitX=0.5;exitY=1;exitDx=0;exitDy=0;exitPerimeter=0;entryX=0.5;entryY=0;entryDx=0;entryDy=0;entryPerimeter=0;startArrow=oval;startFill=0;endArrow=block;endFill=0;" parent="1" source="U2e4l5wQemaMT4tLWJ_u-124" edge="1">
          <mxGeometry relative="1" as="geometry">
            <mxPoint x="76" y="-54.999999999999545" as="targetPoint" />
            <Array as="points">
              <mxPoint x="216" y="-400" />
              <mxPoint x="76" y="-400" />
            </Array>
          </mxGeometry>
        </mxCell>
        <mxCell id="U2e4l5wQemaMT4tLWJ_u-165" style="edgeStyle=orthogonalEdgeStyle;rounded=0;orthogonalLoop=1;jettySize=auto;html=1;fontSize=24;fontColor=#000000;entryX=0.5;entryY=1;entryDx=0;entryDy=0;entryPerimeter=0;dashed=1;startArrow=oval;startFill=0;endArrow=block;endFill=0;" parent="1" source="U2e4l5wQemaMT4tLWJ_u-97" target="U2e4l5wQemaMT4tLWJ_u-136" edge="1">
          <mxGeometry relative="1" as="geometry">
            <Array as="points">
              <mxPoint x="256" y="-320" />
              <mxPoint x="411" y="-320" />
            </Array>
            <mxPoint x="511" y="120" as="targetPoint" />
          </mxGeometry>
        </mxCell>
        <mxCell id="U2e4l5wQemaMT4tLWJ_u-166" style="edgeStyle=orthogonalEdgeStyle;rounded=0;orthogonalLoop=1;jettySize=auto;html=1;entryX=0.5;entryY=1;entryDx=0;entryDy=0;entryPerimeter=0;startArrow=oval;startFill=0;endArrow=block;endFill=0;dashed=1;" parent="1" source="U2e4l5wQemaMT4tLWJ_u-89" target="U2e4l5wQemaMT4tLWJ_u-140" edge="1">
          <mxGeometry relative="1" as="geometry" />
        </mxCell>
        <mxCell id="U2e4l5wQemaMT4tLWJ_u-167" style="edgeStyle=orthogonalEdgeStyle;rounded=0;orthogonalLoop=1;jettySize=auto;html=1;entryX=0.5;entryY=1;entryDx=0;entryDy=0;entryPerimeter=0;startArrow=oval;startFill=0;endArrow=block;endFill=0;dashed=1;" parent="1" source="U2e4l5wQemaMT4tLWJ_u-95" target="U2e4l5wQemaMT4tLWJ_u-154" edge="1">
          <mxGeometry relative="1" as="geometry" />
        </mxCell>
        <mxCell id="U2e4l5wQemaMT4tLWJ_u-168" style="edgeStyle=orthogonalEdgeStyle;rounded=0;orthogonalLoop=1;jettySize=auto;html=1;dashed=1;startArrow=oval;startFill=0;endArrow=block;endFill=0;exitX=0.5;exitY=1;exitDx=0;exitDy=0;exitPerimeter=0;" parent="1" source="U2e4l5wQemaMT4tLWJ_u-150" target="U2e4l5wQemaMT4tLWJ_u-103" edge="1">
          <mxGeometry relative="1" as="geometry">
            <Array as="points">
              <mxPoint x="1326" y="-510" />
              <mxPoint x="1436" y="-510" />
            </Array>
          </mxGeometry>
        </mxCell>
        <mxCell id="U2e4l5wQemaMT4tLWJ_u-169" style="edgeStyle=orthogonalEdgeStyle;rounded=0;orthogonalLoop=1;jettySize=auto;html=1;dashed=1;startArrow=oval;startFill=0;endArrow=block;endFill=0;" parent="1" source="U2e4l5wQemaMT4tLWJ_u-144" target="U2e4l5wQemaMT4tLWJ_u-102" edge="1">
          <mxGeometry relative="1" as="geometry" />
        </mxCell>
        <mxCell id="fV-J4n7LUkyuCnRKsTBQ-21" style="edgeStyle=orthogonalEdgeStyle;rounded=0;orthogonalLoop=1;jettySize=auto;html=1;exitX=0.5;exitY=0;exitDx=0;exitDy=0;exitPerimeter=0;entryX=0.5;entryY=1;entryDx=0;entryDy=0;entryPerimeter=0;dashed=1;startArrow=oval;startFill=0;" parent="1" source="U2e4l5wQemaMT4tLWJ_u-113" target="U2e4l5wQemaMT4tLWJ_u-138" edge="1">
          <mxGeometry relative="1" as="geometry" />
        </mxCell>
        <mxCell id="ztCVzUK7stNG-cCailI1-2" style="edgeStyle=orthogonalEdgeStyle;rounded=0;orthogonalLoop=1;jettySize=auto;html=1;exitX=0.5;exitY=1;exitDx=0;exitDy=0;exitPerimeter=0;entryX=0.5;entryY=0;entryDx=0;entryDy=0;entryPerimeter=0;dashed=1;startArrow=oval;startFill=0;" parent="1" source="U2e4l5wQemaMT4tLWJ_u-128" target="fV-J4n7LUkyuCnRKsTBQ-2" edge="1">
          <mxGeometry relative="1" as="geometry">
            <Array as="points">
              <mxPoint x="1691" y="300" />
              <mxPoint x="1126" y="300" />
            </Array>
          </mxGeometry>
        </mxCell>
      </root>
    </mxGraphModel>
  </diagram>
  <diagram id="anxewemBDnC__M29I5zN" name="UML State Machine Diagram">
    <mxGraphModel dx="5584" dy="3572" grid="1" gridSize="10" guides="1" tooltips="1" connect="1" arrows="1" fold="1" page="1" pageScale="1" pageWidth="827" pageHeight="1169" math="0" shadow="0">
      <root>
        <mxCell id="0" />
        <mxCell id="1" parent="0" />
        <mxCell id="wDRzsEnU7Cl7Jhz5Bpe6-1" value="" style="ellipse;html=1;shape=endState;fillColor=strokeColor;" parent="1" vertex="1">
          <mxGeometry x="460" y="-525" width="30" height="30" as="geometry" />
        </mxCell>
        <mxCell id="wDRzsEnU7Cl7Jhz5Bpe6-5" style="edgeStyle=orthogonalEdgeStyle;rounded=0;orthogonalLoop=1;jettySize=auto;html=1;exitX=1;exitY=0.5;exitDx=0;exitDy=0;entryX=0;entryY=0.5;entryDx=0;entryDy=0;" parent="1" source="wDRzsEnU7Cl7Jhz5Bpe6-2" target="wDRzsEnU7Cl7Jhz5Bpe6-3" edge="1">
          <mxGeometry relative="1" as="geometry" />
        </mxCell>
        <mxCell id="wDRzsEnU7Cl7Jhz5Bpe6-2" value="" style="ellipse;fillColor=strokeColor;html=1;" parent="1" vertex="1">
          <mxGeometry x="-250" y="-765" width="30" height="30" as="geometry" />
        </mxCell>
        <mxCell id="wDRzsEnU7Cl7Jhz5Bpe6-15" value="событие:&lt;div&gt;&lt;span style=&quot;background-color: light-dark(#ffffff, var(--ge-dark-color, #121212)); color: light-dark(rgb(0, 0, 0), rgb(255, 255, 255));&quot;&gt;за 1 день&amp;nbsp;&lt;/span&gt;&lt;div&gt;до приёма&lt;/div&gt;&lt;/div&gt;" style="edgeStyle=orthogonalEdgeStyle;rounded=0;orthogonalLoop=1;jettySize=auto;html=1;exitX=0.5;exitY=1;exitDx=0;exitDy=0;entryX=0.5;entryY=0;entryDx=0;entryDy=0;labelPosition=right;verticalLabelPosition=middle;align=left;verticalAlign=middle;spacing=7;" parent="1" source="wDRzsEnU7Cl7Jhz5Bpe6-3" target="wDRzsEnU7Cl7Jhz5Bpe6-6" edge="1">
          <mxGeometry relative="1" as="geometry">
            <mxPoint as="offset" />
          </mxGeometry>
        </mxCell>
        <mxCell id="wDRzsEnU7Cl7Jhz5Bpe6-3" value="Создана" style="html=1;align=center;verticalAlign=middle;rounded=1;absoluteArcSize=1;arcSize=10;dashed=0;whiteSpace=wrap;spacing=2;labelPosition=center;verticalLabelPosition=middle;" parent="1" vertex="1">
          <mxGeometry x="-180" y="-770" width="120" height="40" as="geometry" />
        </mxCell>
        <mxCell id="wDRzsEnU7Cl7Jhz5Bpe6-4" value="" style="shape=sumEllipse;perimeter=ellipsePerimeter;html=1;backgroundOutline=1;" parent="1" vertex="1">
          <mxGeometry x="-340" y="-525" width="30" height="30" as="geometry" />
        </mxCell>
        <mxCell id="wDRzsEnU7Cl7Jhz5Bpe6-12" value="пациент&lt;div&gt;отказался&lt;/div&gt;&lt;div&gt;от посещения&lt;/div&gt;" style="edgeStyle=orthogonalEdgeStyle;rounded=0;orthogonalLoop=1;jettySize=auto;html=1;exitX=0.25;exitY=1;exitDx=0;exitDy=0;entryX=1;entryY=0.5;entryDx=0;entryDy=0;labelPosition=left;verticalLabelPosition=middle;align=right;verticalAlign=middle;spacing=7;" parent="1" source="wDRzsEnU7Cl7Jhz5Bpe6-6" target="wDRzsEnU7Cl7Jhz5Bpe6-9" edge="1">
          <mxGeometry relative="1" as="geometry">
            <Array as="points">
              <mxPoint x="-130" y="-610" />
              <mxPoint x="-130" y="-510" />
            </Array>
          </mxGeometry>
        </mxCell>
        <mxCell id="wDRzsEnU7Cl7Jhz5Bpe6-13" value="пациент&lt;div&gt;подтвердил&lt;/div&gt;&lt;div&gt;запись на прием&lt;/div&gt;" style="edgeStyle=orthogonalEdgeStyle;rounded=0;orthogonalLoop=1;jettySize=auto;html=1;exitX=0.75;exitY=1;exitDx=0;exitDy=0;entryX=0;entryY=0.5;entryDx=0;entryDy=0;labelPosition=right;verticalLabelPosition=middle;align=left;verticalAlign=middle;spacing=7;" parent="1" source="wDRzsEnU7Cl7Jhz5Bpe6-6" target="wDRzsEnU7Cl7Jhz5Bpe6-10" edge="1">
          <mxGeometry relative="1" as="geometry">
            <Array as="points">
              <mxPoint x="-110" y="-610" />
              <mxPoint x="-110" y="-510" />
            </Array>
          </mxGeometry>
        </mxCell>
        <mxCell id="wDRzsEnU7Cl7Jhz5Bpe6-6" value="Ожидает подтверждения" style="html=1;align=center;verticalAlign=middle;rounded=1;absoluteArcSize=1;arcSize=10;dashed=0;whiteSpace=wrap;spacing=2;labelPosition=center;verticalLabelPosition=middle;" parent="1" vertex="1">
          <mxGeometry x="-180" y="-650" width="120" height="40" as="geometry" />
        </mxCell>
        <mxCell id="wDRzsEnU7Cl7Jhz5Bpe6-14" style="edgeStyle=orthogonalEdgeStyle;rounded=0;orthogonalLoop=1;jettySize=auto;html=1;exitX=1;exitY=0.5;exitDx=0;exitDy=0;entryX=0;entryY=0.5;entryDx=0;entryDy=0;" parent="1" source="wDRzsEnU7Cl7Jhz5Bpe6-7" target="wDRzsEnU7Cl7Jhz5Bpe6-1" edge="1">
          <mxGeometry relative="1" as="geometry" />
        </mxCell>
        <mxCell id="wDRzsEnU7Cl7Jhz5Bpe6-7" value="Завершена" style="html=1;align=center;verticalAlign=middle;rounded=1;absoluteArcSize=1;arcSize=10;dashed=0;whiteSpace=wrap;spacing=2;labelPosition=center;verticalLabelPosition=middle;" parent="1" vertex="1">
          <mxGeometry x="310" y="-530" width="110" height="40" as="geometry" />
        </mxCell>
        <mxCell id="wDRzsEnU7Cl7Jhz5Bpe6-17" value="врач&lt;div&gt;назначил&lt;div&gt;лечение&lt;/div&gt;&lt;/div&gt;" style="edgeStyle=orthogonalEdgeStyle;rounded=0;orthogonalLoop=1;jettySize=auto;html=1;exitX=1;exitY=0.5;exitDx=0;exitDy=0;entryX=0;entryY=0.5;entryDx=0;entryDy=0;labelPosition=center;verticalLabelPosition=top;align=center;verticalAlign=bottom;spacing=7;" parent="1" source="wDRzsEnU7Cl7Jhz5Bpe6-8" target="wDRzsEnU7Cl7Jhz5Bpe6-7" edge="1">
          <mxGeometry relative="1" as="geometry" />
        </mxCell>
        <mxCell id="wDRzsEnU7Cl7Jhz5Bpe6-8" value="В работе" style="html=1;align=center;verticalAlign=middle;rounded=1;absoluteArcSize=1;arcSize=10;dashed=0;whiteSpace=wrap;spacing=2;labelPosition=center;verticalLabelPosition=middle;" parent="1" vertex="1">
          <mxGeometry x="110" y="-530" width="120" height="40" as="geometry" />
        </mxCell>
        <mxCell id="wDRzsEnU7Cl7Jhz5Bpe6-11" style="edgeStyle=orthogonalEdgeStyle;rounded=0;orthogonalLoop=1;jettySize=auto;html=1;exitX=0;exitY=0.5;exitDx=0;exitDy=0;entryX=1;entryY=0.5;entryDx=0;entryDy=0;" parent="1" source="wDRzsEnU7Cl7Jhz5Bpe6-9" target="wDRzsEnU7Cl7Jhz5Bpe6-4" edge="1">
          <mxGeometry relative="1" as="geometry" />
        </mxCell>
        <mxCell id="wDRzsEnU7Cl7Jhz5Bpe6-9" value="Отменена" style="html=1;align=center;verticalAlign=middle;rounded=1;absoluteArcSize=1;arcSize=10;dashed=0;whiteSpace=wrap;spacing=2;labelPosition=center;verticalLabelPosition=middle;" parent="1" vertex="1">
          <mxGeometry x="-270" y="-530" width="120" height="40" as="geometry" />
        </mxCell>
        <mxCell id="wDRzsEnU7Cl7Jhz5Bpe6-16" value="пациент&lt;div&gt;пришел на&lt;/div&gt;&lt;div&gt;прием&lt;/div&gt;" style="edgeStyle=orthogonalEdgeStyle;rounded=0;orthogonalLoop=1;jettySize=auto;html=1;exitX=1;exitY=0.5;exitDx=0;exitDy=0;entryX=0;entryY=0.5;entryDx=0;entryDy=0;labelPosition=center;verticalLabelPosition=top;align=center;verticalAlign=bottom;spacing=7;" parent="1" source="wDRzsEnU7Cl7Jhz5Bpe6-10" target="wDRzsEnU7Cl7Jhz5Bpe6-8" edge="1">
          <mxGeometry relative="1" as="geometry" />
        </mxCell>
        <mxCell id="wDRzsEnU7Cl7Jhz5Bpe6-10" value="Подтверждена" style="html=1;align=center;verticalAlign=middle;rounded=1;absoluteArcSize=1;arcSize=10;dashed=0;whiteSpace=wrap;spacing=2;labelPosition=center;verticalLabelPosition=middle;" parent="1" vertex="1">
          <mxGeometry x="-90" y="-530" width="120" height="40" as="geometry" />
        </mxCell>
      </root>
    </mxGraphModel>
  </diagram>
  <diagram id="hYoqlKqIXTMq-99qZDfW" name="BPMN TO-BE">
    <mxGraphModel dx="4757" dy="3572" grid="1" gridSize="10" guides="1" tooltips="1" connect="1" arrows="1" fold="1" page="1" pageScale="1" pageWidth="827" pageHeight="1169" math="0" shadow="0">
      <root>
        <mxCell id="0" />
        <mxCell id="1" parent="0" />
        <mxCell id="oDeALWmnIPYgVK9oYnNF-1" value="Пациент" style="swimlane;html=1;startSize=20;horizontal=0;" parent="1" vertex="1">
          <mxGeometry x="111" y="-1010" width="2260" height="450" as="geometry" />
        </mxCell>
        <mxCell id="W-VEdfCq-et-qdLQ6mGL-1" value="&lt;font style=&quot;font-size: 11px;&quot;&gt;Приём завершён&lt;/font&gt;" style="points=[[0.145,0.145,0],[0.5,0,0],[0.855,0.145,0],[1,0.5,0],[0.855,0.855,0],[0.5,1,0],[0.145,0.855,0],[0,0.5,0]];shape=mxgraph.bpmn.event;html=1;verticalLabelPosition=bottom;labelBackgroundColor=#ffffff;verticalAlign=top;align=center;perimeter=ellipsePerimeter;outlineConnect=0;aspect=fixed;outline=end;symbol=terminate2;" parent="oDeALWmnIPYgVK9oYnNF-1" vertex="1">
          <mxGeometry x="2150" y="129" width="50" height="50" as="geometry" />
        </mxCell>
        <mxCell id="W-VEdfCq-et-qdLQ6mGL-2" value="&lt;font style=&quot;font-size: 11px;&quot;&gt;Лечение назначено&lt;/font&gt;" style="points=[[0.145,0.145,0],[0.5,0,0],[0.855,0.145,0],[1,0.5,0],[0.855,0.855,0],[0.5,1,0],[0.145,0.855,0],[0,0.5,0]];shape=mxgraph.bpmn.event;html=1;verticalLabelPosition=top;labelBackgroundColor=#ffffff;verticalAlign=bottom;align=center;perimeter=ellipsePerimeter;outlineConnect=0;aspect=fixed;outline=catching;symbol=message;labelPosition=center;spacing=2;" parent="oDeALWmnIPYgVK9oYnNF-1" vertex="1">
          <mxGeometry x="2020" y="129" width="50" height="50" as="geometry" />
        </mxCell>
        <mxCell id="W-VEdfCq-et-qdLQ6mGL-3" style="edgeStyle=orthogonalEdgeStyle;rounded=0;orthogonalLoop=1;jettySize=auto;html=1;exitX=1;exitY=0.5;exitDx=0;exitDy=0;exitPerimeter=0;entryX=0;entryY=0.5;entryDx=0;entryDy=0;entryPerimeter=0;" parent="oDeALWmnIPYgVK9oYnNF-1" source="W-VEdfCq-et-qdLQ6mGL-2" target="W-VEdfCq-et-qdLQ6mGL-1" edge="1">
          <mxGeometry relative="1" as="geometry" />
        </mxCell>
        <mxCell id="2RuiBV0uSUDYE1R1gkZL-2" value="" style="edgeStyle=orthogonalEdgeStyle;rounded=0;orthogonalLoop=1;jettySize=auto;html=1;" parent="oDeALWmnIPYgVK9oYnNF-1" source="rQnvSaKvkVLAncGvvP-1-1" target="W-VEdfCq-et-qdLQ6mGL-2" edge="1">
          <mxGeometry relative="1" as="geometry" />
        </mxCell>
        <mxCell id="rQnvSaKvkVLAncGvvP-1-1" value="Прийти на приём" style="points=[[0.25,0,0],[0.5,0,0],[0.75,0,0],[1,0.25,0],[1,0.5,0],[1,0.75,0],[0.75,1,0],[0.5,1,0],[0.25,1,0],[0,0.75,0],[0,0.5,0],[0,0.25,0]];shape=mxgraph.bpmn.task;whiteSpace=wrap;rectStyle=rounded;size=10;taskMarker=abstract;fontSize=11;" parent="oDeALWmnIPYgVK9oYnNF-1" vertex="1">
          <mxGeometry x="1825" y="114" width="120" height="80" as="geometry" />
        </mxCell>
        <mxCell id="rQnvSaKvkVLAncGvvP-1-2" value="В день &lt;br&gt;записи на&amp;nbsp;приём" style="points=[[0.145,0.145,0],[0.5,0,0],[0.855,0.145,0],[1,0.5,0],[0.855,0.855,0],[0.5,1,0],[0.145,0.855,0],[0,0.5,0]];shape=mxgraph.bpmn.event;html=1;verticalLabelPosition=bottom;labelBackgroundColor=#ffffff;verticalAlign=top;align=center;perimeter=ellipsePerimeter;outlineConnect=0;aspect=fixed;outline=catching;symbol=timer;fontSize=11;" parent="oDeALWmnIPYgVK9oYnNF-1" vertex="1">
          <mxGeometry x="1725" y="129" width="50" height="50" as="geometry" />
        </mxCell>
        <mxCell id="rQnvSaKvkVLAncGvvP-1-3" style="edgeStyle=orthogonalEdgeStyle;rounded=0;orthogonalLoop=1;jettySize=auto;html=1;exitX=1;exitY=0.5;exitDx=0;exitDy=0;exitPerimeter=0;entryX=0;entryY=0.5;entryDx=0;entryDy=0;entryPerimeter=0;" parent="oDeALWmnIPYgVK9oYnNF-1" source="rQnvSaKvkVLAncGvvP-1-2" target="rQnvSaKvkVLAncGvvP-1-1" edge="1">
          <mxGeometry relative="1" as="geometry" />
        </mxCell>
        <mxCell id="XzukF2Bfe89nJHPHAxkQ-13" value="" style="edgeStyle=orthogonalEdgeStyle;rounded=0;orthogonalLoop=1;jettySize=auto;html=1;" parent="oDeALWmnIPYgVK9oYnNF-1" source="ZUP1OzC_5cRaVZ1VSMOz-20" target="ZUP1OzC_5cRaVZ1VSMOz-18" edge="1">
          <mxGeometry relative="1" as="geometry" />
        </mxCell>
        <mxCell id="ZUP1OzC_5cRaVZ1VSMOz-20" value="&lt;font style=&quot;font-size: 11px;&quot;&gt;Плохое &lt;br&gt;самочувствие&lt;/font&gt;" style="points=[[0.145,0.145,0],[0.5,0,0],[0.855,0.145,0],[1,0.5,0],[0.855,0.855,0],[0.5,1,0],[0.145,0.855,0],[0,0.5,0]];shape=mxgraph.bpmn.event;html=1;verticalLabelPosition=bottom;labelBackgroundColor=#ffffff;verticalAlign=top;align=center;perimeter=ellipsePerimeter;outlineConnect=0;aspect=fixed;outline=standard;symbol=general;" parent="oDeALWmnIPYgVK9oYnNF-1" vertex="1">
          <mxGeometry x="40" y="129" width="50" height="50" as="geometry" />
        </mxCell>
        <mxCell id="k80jO0dJF_mKTDsVU0_n-1" value="" style="edgeStyle=orthogonalEdgeStyle;rounded=0;orthogonalLoop=1;jettySize=auto;html=1;" parent="oDeALWmnIPYgVK9oYnNF-1" source="ZUP1OzC_5cRaVZ1VSMOz-18" target="ZUP1OzC_5cRaVZ1VSMOz-41" edge="1">
          <mxGeometry relative="1" as="geometry" />
        </mxCell>
        <mxCell id="ZUP1OzC_5cRaVZ1VSMOz-18" value="Открыть приложение медицинского центра" style="points=[[0.25,0,0],[0.5,0,0],[0.75,0,0],[1,0.25,0],[1,0.5,0],[1,0.75,0],[0.75,1,0],[0.5,1,0],[0.25,1,0],[0,0.75,0],[0,0.5,0],[0,0.25,0]];shape=mxgraph.bpmn.task;whiteSpace=wrap;rectStyle=rounded;size=10;taskMarker=abstract;fontSize=11;" parent="oDeALWmnIPYgVK9oYnNF-1" vertex="1">
          <mxGeometry x="130" y="114" width="120" height="80" as="geometry" />
        </mxCell>
        <mxCell id="ZUP1OzC_5cRaVZ1VSMOz-44" value="Авторизоваться" style="points=[[0.25,0,0],[0.5,0,0],[0.75,0,0],[1,0.25,0],[1,0.5,0],[1,0.75,0],[0.75,1,0],[0.5,1,0],[0.25,1,0],[0,0.75,0],[0,0.5,0],[0,0.25,0]];shape=mxgraph.bpmn.task;whiteSpace=wrap;rectStyle=rounded;size=10;taskMarker=abstract;fontSize=11;" parent="oDeALWmnIPYgVK9oYnNF-1" vertex="1">
          <mxGeometry x="430" y="114" width="120" height="80" as="geometry" />
        </mxCell>
        <mxCell id="4RhCUlvhzi-U4m4E3Zz_-3" value="Нет" style="rounded=0;orthogonalLoop=1;jettySize=auto;html=1;" parent="oDeALWmnIPYgVK9oYnNF-1" source="ZUP1OzC_5cRaVZ1VSMOz-41" target="ZUP1OzC_5cRaVZ1VSMOz-46" edge="1">
          <mxGeometry relative="1" as="geometry" />
        </mxCell>
        <mxCell id="ZUP1OzC_5cRaVZ1VSMOz-41" value="&lt;font style=&quot;font-size: 11px;&quot;&gt;Пациент был&lt;br&gt;зарегистрирован?&lt;/font&gt;" style="points=[[0.25,0.25,0],[0.5,0,0],[0.75,0.25,0],[1,0.5,0],[0.75,0.75,0],[0.5,1,0],[0.25,0.75,0],[0,0.5,0]];shape=mxgraph.bpmn.gateway2;html=1;verticalLabelPosition=top;labelBackgroundColor=#ffffff;verticalAlign=bottom;align=center;perimeter=rhombusPerimeter;outlineConnect=0;outline=none;symbol=none;gwType=exclusive;labelPosition=center;" parent="oDeALWmnIPYgVK9oYnNF-1" vertex="1">
          <mxGeometry x="300" y="129" width="50" height="50" as="geometry" />
        </mxCell>
        <mxCell id="XzukF2Bfe89nJHPHAxkQ-2" value="" style="edgeStyle=orthogonalEdgeStyle;rounded=0;orthogonalLoop=1;jettySize=auto;html=1;" parent="oDeALWmnIPYgVK9oYnNF-1" source="ZUP1OzC_5cRaVZ1VSMOz-46" target="ZUP1OzC_5cRaVZ1VSMOz-48" edge="1">
          <mxGeometry relative="1" as="geometry" />
        </mxCell>
        <mxCell id="ZUP1OzC_5cRaVZ1VSMOz-46" value="Зарегистрироваться" style="points=[[0.25,0,0],[0.5,0,0],[0.75,0,0],[1,0.25,0],[1,0.5,0],[1,0.75,0],[0.75,1,0],[0.5,1,0],[0.25,1,0],[0,0.75,0],[0,0.5,0],[0,0.25,0]];shape=mxgraph.bpmn.task;whiteSpace=wrap;rectStyle=rounded;size=10;taskMarker=abstract;fontSize=11;" parent="oDeALWmnIPYgVK9oYnNF-1" vertex="1">
          <mxGeometry x="265" y="269" width="120" height="80" as="geometry" />
        </mxCell>
        <mxCell id="7JFYgEiq0V4vH_r67FQP-1" value="" style="edgeStyle=orthogonalEdgeStyle;rounded=0;orthogonalLoop=1;jettySize=auto;html=1;entryX=0.5;entryY=1;entryDx=0;entryDy=0;entryPerimeter=0;" parent="oDeALWmnIPYgVK9oYnNF-1" source="ZUP1OzC_5cRaVZ1VSMOz-48" target="ZUP1OzC_5cRaVZ1VSMOz-44" edge="1">
          <mxGeometry relative="1" as="geometry" />
        </mxCell>
        <mxCell id="ZUP1OzC_5cRaVZ1VSMOz-48" value="Ввести персональные данные" style="points=[[0.25,0,0],[0.5,0,0],[0.75,0,0],[1,0.25,0],[1,0.5,0],[1,0.75,0],[0.75,1,0],[0.5,1,0],[0.25,1,0],[0,0.75,0],[0,0.5,0],[0,0.25,0]];shape=mxgraph.bpmn.task;whiteSpace=wrap;rectStyle=rounded;size=10;taskMarker=abstract;fontSize=11;" parent="oDeALWmnIPYgVK9oYnNF-1" vertex="1">
          <mxGeometry x="430" y="269" width="120" height="80" as="geometry" />
        </mxCell>
        <mxCell id="XzukF2Bfe89nJHPHAxkQ-7" value="" style="edgeStyle=orthogonalEdgeStyle;rounded=0;orthogonalLoop=1;jettySize=auto;html=1;" parent="oDeALWmnIPYgVK9oYnNF-1" source="ZUP1OzC_5cRaVZ1VSMOz-27" target="fIHDFCNurajuqBFPYW8o-3" edge="1">
          <mxGeometry relative="1" as="geometry" />
        </mxCell>
        <mxCell id="ZUP1OzC_5cRaVZ1VSMOz-27" value="Записаться на приём" style="points=[[0.25,0,0],[0.5,0,0],[0.75,0,0],[1,0.25,0],[1,0.5,0],[1,0.75,0],[0.75,1,0],[0.5,1,0],[0.25,1,0],[0,0.75,0],[0,0.5,0],[0,0.25,0]];shape=mxgraph.bpmn.task;whiteSpace=wrap;rectStyle=rounded;size=10;taskMarker=abstract;fontSize=11;" parent="oDeALWmnIPYgVK9oYnNF-1" vertex="1">
          <mxGeometry x="1070" y="114" width="120" height="80" as="geometry" />
        </mxCell>
        <mxCell id="XzukF2Bfe89nJHPHAxkQ-3" value="" style="edgeStyle=orthogonalEdgeStyle;rounded=0;orthogonalLoop=1;jettySize=auto;html=1;" parent="oDeALWmnIPYgVK9oYnNF-1" source="ZUP1OzC_5cRaVZ1VSMOz-23" target="ZUP1OzC_5cRaVZ1VSMOz-58" edge="1">
          <mxGeometry relative="1" as="geometry" />
        </mxCell>
        <mxCell id="ZUP1OzC_5cRaVZ1VSMOz-23" value="Выбрать филиал" style="points=[[0.25,0,0],[0.5,0,0],[0.75,0,0],[1,0.25,0],[1,0.5,0],[1,0.75,0],[0.75,1,0],[0.5,1,0],[0.25,1,0],[0,0.75,0],[0,0.5,0],[0,0.25,0]];shape=mxgraph.bpmn.task;whiteSpace=wrap;rectStyle=rounded;size=10;taskMarker=abstract;fontSize=11;" parent="oDeALWmnIPYgVK9oYnNF-1" vertex="1">
          <mxGeometry x="590" y="114" width="120" height="80" as="geometry" />
        </mxCell>
        <mxCell id="XzukF2Bfe89nJHPHAxkQ-5" value="" style="edgeStyle=orthogonalEdgeStyle;rounded=0;orthogonalLoop=1;jettySize=auto;html=1;" parent="oDeALWmnIPYgVK9oYnNF-1" source="ZUP1OzC_5cRaVZ1VSMOz-58" target="ZUP1OzC_5cRaVZ1VSMOz-25" edge="1">
          <mxGeometry relative="1" as="geometry" />
        </mxCell>
        <mxCell id="ZUP1OzC_5cRaVZ1VSMOz-58" value="Выбрать врача" style="points=[[0.25,0,0],[0.5,0,0],[0.75,0,0],[1,0.25,0],[1,0.5,0],[1,0.75,0],[0.75,1,0],[0.5,1,0],[0.25,1,0],[0,0.75,0],[0,0.5,0],[0,0.25,0]];shape=mxgraph.bpmn.task;whiteSpace=wrap;rectStyle=rounded;size=10;taskMarker=abstract;fontSize=11;" parent="oDeALWmnIPYgVK9oYnNF-1" vertex="1">
          <mxGeometry x="750" y="114" width="120" height="80" as="geometry" />
        </mxCell>
        <mxCell id="XzukF2Bfe89nJHPHAxkQ-6" value="" style="edgeStyle=orthogonalEdgeStyle;rounded=0;orthogonalLoop=1;jettySize=auto;html=1;" parent="oDeALWmnIPYgVK9oYnNF-1" source="ZUP1OzC_5cRaVZ1VSMOz-25" target="ZUP1OzC_5cRaVZ1VSMOz-27" edge="1">
          <mxGeometry relative="1" as="geometry" />
        </mxCell>
        <mxCell id="ZUP1OzC_5cRaVZ1VSMOz-25" value="Выбрать дату и время" style="points=[[0.25,0,0],[0.5,0,0],[0.75,0,0],[1,0.25,0],[1,0.5,0],[1,0.75,0],[0.75,1,0],[0.5,1,0],[0.25,1,0],[0,0.75,0],[0,0.5,0],[0,0.25,0]];shape=mxgraph.bpmn.task;whiteSpace=wrap;rectStyle=rounded;size=10;taskMarker=abstract;fontSize=11;" parent="oDeALWmnIPYgVK9oYnNF-1" vertex="1">
          <mxGeometry x="910" y="114" width="120" height="80" as="geometry" />
        </mxCell>
        <mxCell id="XzukF2Bfe89nJHPHAxkQ-8" value="" style="edgeStyle=orthogonalEdgeStyle;rounded=0;orthogonalLoop=1;jettySize=auto;html=1;" parent="oDeALWmnIPYgVK9oYnNF-1" source="fIHDFCNurajuqBFPYW8o-3" target="ZUP1OzC_5cRaVZ1VSMOz-30" edge="1">
          <mxGeometry relative="1" as="geometry" />
        </mxCell>
        <mxCell id="fIHDFCNurajuqBFPYW8o-3" value="За 1 день&lt;br style=&quot;border-color: var(--border-color);&quot;&gt;до назначенного&lt;br style=&quot;border-color: var(--border-color);&quot;&gt;приёма" style="points=[[0.145,0.145,0],[0.5,0,0],[0.855,0.145,0],[1,0.5,0],[0.855,0.855,0],[0.5,1,0],[0.145,0.855,0],[0,0.5,0]];shape=mxgraph.bpmn.event;html=1;verticalLabelPosition=bottom;labelBackgroundColor=#ffffff;verticalAlign=top;align=center;perimeter=ellipsePerimeter;outlineConnect=0;aspect=fixed;outline=catching;symbol=timer;fontSize=11;" parent="oDeALWmnIPYgVK9oYnNF-1" vertex="1">
          <mxGeometry x="1240" y="129" width="50" height="50" as="geometry" />
        </mxCell>
        <mxCell id="4RhCUlvhzi-U4m4E3Zz_-5" value="Нет" style="rounded=0;orthogonalLoop=1;jettySize=auto;html=1;" parent="oDeALWmnIPYgVK9oYnNF-1" source="ZUP1OzC_5cRaVZ1VSMOz-32" target="ZUP1OzC_5cRaVZ1VSMOz-34" edge="1">
          <mxGeometry relative="1" as="geometry" />
        </mxCell>
        <mxCell id="XzukF2Bfe89nJHPHAxkQ-14" value="Да" style="edgeStyle=orthogonalEdgeStyle;rounded=0;orthogonalLoop=1;jettySize=auto;html=1;" parent="oDeALWmnIPYgVK9oYnNF-1" source="ZUP1OzC_5cRaVZ1VSMOz-32" target="ZUP1OzC_5cRaVZ1VSMOz-54" edge="1">
          <mxGeometry relative="1" as="geometry" />
        </mxCell>
        <mxCell id="ZUP1OzC_5cRaVZ1VSMOz-32" value="&lt;font style=&quot;font-size: 11px;&quot;&gt;Пациент &lt;br&gt;подтвердил &lt;br&gt;запись?&lt;/font&gt;" style="points=[[0.25,0.25,0],[0.5,0,0],[0.75,0.25,0],[1,0.5,0],[0.75,0.75,0],[0.5,1,0],[0.25,0.75,0],[0,0.5,0]];shape=mxgraph.bpmn.gateway2;html=1;verticalLabelPosition=top;labelBackgroundColor=#ffffff;verticalAlign=bottom;align=center;perimeter=rhombusPerimeter;outlineConnect=0;outline=none;symbol=none;gwType=exclusive;labelPosition=center;" parent="oDeALWmnIPYgVK9oYnNF-1" vertex="1">
          <mxGeometry x="1440" y="129" width="50" height="50" as="geometry" />
        </mxCell>
        <mxCell id="XzukF2Bfe89nJHPHAxkQ-1" value="" style="edgeStyle=orthogonalEdgeStyle;rounded=0;orthogonalLoop=1;jettySize=auto;html=1;" parent="oDeALWmnIPYgVK9oYnNF-1" source="ZUP1OzC_5cRaVZ1VSMOz-34" target="ZUP1OzC_5cRaVZ1VSMOz-31" edge="1">
          <mxGeometry relative="1" as="geometry" />
        </mxCell>
        <mxCell id="ZUP1OzC_5cRaVZ1VSMOz-34" value="Отменить запись" style="points=[[0.25,0,0],[0.5,0,0],[0.75,0,0],[1,0.25,0],[1,0.5,0],[1,0.75,0],[0.75,1,0],[0.5,1,0],[0.25,1,0],[0,0.75,0],[0,0.5,0],[0,0.25,0]];shape=mxgraph.bpmn.task;whiteSpace=wrap;rectStyle=rounded;size=10;taskMarker=abstract;fontSize=11;" parent="oDeALWmnIPYgVK9oYnNF-1" vertex="1">
          <mxGeometry x="1405" y="269" width="120" height="80" as="geometry" />
        </mxCell>
        <mxCell id="ZUP1OzC_5cRaVZ1VSMOz-31" value="&lt;font style=&quot;font-size: 11px;&quot;&gt;Запись отменена&lt;/font&gt;" style="points=[[0.145,0.145,0],[0.5,0,0],[0.855,0.145,0],[1,0.5,0],[0.855,0.855,0],[0.5,1,0],[0.145,0.855,0],[0,0.5,0]];shape=mxgraph.bpmn.event;html=1;verticalLabelPosition=bottom;labelBackgroundColor=#ffffff;verticalAlign=top;align=center;perimeter=ellipsePerimeter;outlineConnect=0;aspect=fixed;outline=end;symbol=terminate2;" parent="oDeALWmnIPYgVK9oYnNF-1" vertex="1">
          <mxGeometry x="1575" y="284" width="50" height="50" as="geometry" />
        </mxCell>
        <mxCell id="XzukF2Bfe89nJHPHAxkQ-9" value="" style="edgeStyle=orthogonalEdgeStyle;rounded=0;orthogonalLoop=1;jettySize=auto;html=1;" parent="oDeALWmnIPYgVK9oYnNF-1" source="ZUP1OzC_5cRaVZ1VSMOz-30" target="ZUP1OzC_5cRaVZ1VSMOz-32" edge="1">
          <mxGeometry relative="1" as="geometry" />
        </mxCell>
        <mxCell id="ZUP1OzC_5cRaVZ1VSMOz-30" value="&lt;font style=&quot;font-size: 11px;&quot;&gt;&lt;font style=&quot;font-size: 11px;&quot;&gt;Уведомление&lt;br&gt;для&amp;nbsp;подтверждения &lt;br&gt;приёма&lt;/font&gt;&amp;nbsp;&lt;/font&gt;" style="points=[[0.145,0.145,0],[0.5,0,0],[0.855,0.145,0],[1,0.5,0],[0.855,0.855,0],[0.5,1,0],[0.145,0.855,0],[0,0.5,0]];shape=mxgraph.bpmn.event;html=1;verticalLabelPosition=bottom;labelBackgroundColor=#ffffff;verticalAlign=top;align=center;perimeter=ellipsePerimeter;outlineConnect=0;aspect=fixed;outline=catching;symbol=message;fontSize=16;" parent="oDeALWmnIPYgVK9oYnNF-1" vertex="1">
          <mxGeometry x="1340" y="129" width="50" height="50" as="geometry" />
        </mxCell>
        <mxCell id="4RhCUlvhzi-U4m4E3Zz_-2" value="Да" style="edgeStyle=orthogonalEdgeStyle;rounded=0;orthogonalLoop=1;jettySize=auto;html=1;exitX=1;exitY=0.5;exitDx=0;exitDy=0;exitPerimeter=0;entryX=0;entryY=0.5;entryDx=0;entryDy=0;entryPerimeter=0;" parent="oDeALWmnIPYgVK9oYnNF-1" source="ZUP1OzC_5cRaVZ1VSMOz-41" target="ZUP1OzC_5cRaVZ1VSMOz-44" edge="1">
          <mxGeometry relative="1" as="geometry">
            <mxPoint x="410" y="154" as="targetPoint" />
          </mxGeometry>
        </mxCell>
        <mxCell id="XzukF2Bfe89nJHPHAxkQ-15" value="" style="edgeStyle=orthogonalEdgeStyle;rounded=0;orthogonalLoop=1;jettySize=auto;html=1;" parent="oDeALWmnIPYgVK9oYnNF-1" source="ZUP1OzC_5cRaVZ1VSMOz-54" target="rQnvSaKvkVLAncGvvP-1-2" edge="1">
          <mxGeometry relative="1" as="geometry" />
        </mxCell>
        <mxCell id="ZUP1OzC_5cRaVZ1VSMOz-54" value="Подтвердить запись" style="points=[[0.25,0,0],[0.5,0,0],[0.75,0,0],[1,0.25,0],[1,0.5,0],[1,0.75,0],[0.75,1,0],[0.5,1,0],[0.25,1,0],[0,0.75,0],[0,0.5,0],[0,0.25,0]];shape=mxgraph.bpmn.task;whiteSpace=wrap;rectStyle=rounded;size=10;taskMarker=abstract;fontSize=11;" parent="oDeALWmnIPYgVK9oYnNF-1" vertex="1">
          <mxGeometry x="1550" y="114" width="120" height="80" as="geometry" />
        </mxCell>
        <mxCell id="k80jO0dJF_mKTDsVU0_n-2" style="edgeStyle=orthogonalEdgeStyle;rounded=0;orthogonalLoop=1;jettySize=auto;html=1;exitX=1;exitY=0.5;exitDx=0;exitDy=0;exitPerimeter=0;entryX=0;entryY=0.5;entryDx=0;entryDy=0;entryPerimeter=0;" parent="oDeALWmnIPYgVK9oYnNF-1" source="ZUP1OzC_5cRaVZ1VSMOz-44" target="ZUP1OzC_5cRaVZ1VSMOz-23" edge="1">
          <mxGeometry relative="1" as="geometry" />
        </mxCell>
        <mxCell id="ulD_rFx1-RWuvtASL0bG-1" value="Медицинская клиника&amp;nbsp;&lt;span style=&quot;text-align: start; fill: rgb(144, 101, 176);&quot; data-reactroot=&quot;&quot; class=&quot;notion-enable-hover&quot; data-token-index=&quot;0&quot;&gt;«Вита» имени Е.Л. Яницкой&lt;/span&gt;" style="swimlane;html=1;childLayout=stackLayout;resizeParent=1;resizeParentMax=0;horizontal=1;startSize=20;horizontalStack=0;" parent="1" vertex="1">
          <mxGeometry x="111" y="-480" width="2260" height="340" as="geometry">
            <mxRectangle x="10" y="-620" width="320" height="30" as="alternateBounds" />
          </mxGeometry>
        </mxCell>
        <mxCell id="ulD_rFx1-RWuvtASL0bG-24" value="Врач" style="swimlane;html=1;startSize=20;horizontal=0;" parent="ulD_rFx1-RWuvtASL0bG-1" vertex="1">
          <mxGeometry y="20" width="2260" height="320" as="geometry" />
        </mxCell>
        <mxCell id="ulD_rFx1-RWuvtASL0bG-26" style="edgeStyle=orthogonalEdgeStyle;rounded=0;orthogonalLoop=1;jettySize=auto;html=1;exitX=1;exitY=0.5;exitDx=0;exitDy=0;exitPerimeter=0;" parent="ulD_rFx1-RWuvtASL0bG-24" source="ulD_rFx1-RWuvtASL0bG-27" target="ulD_rFx1-RWuvtASL0bG-29" edge="1">
          <mxGeometry relative="1" as="geometry" />
        </mxCell>
        <mxCell id="ulD_rFx1-RWuvtASL0bG-27" value="Принять пациента " style="points=[[0.25,0,0],[0.5,0,0],[0.75,0,0],[1,0.25,0],[1,0.5,0],[1,0.75,0],[0.75,1,0],[0.5,1,0],[0.25,1,0],[0,0.75,0],[0,0.5,0],[0,0.25,0]];shape=mxgraph.bpmn.task;whiteSpace=wrap;rectStyle=rounded;size=10;taskMarker=abstract;fontSize=11;" parent="ulD_rFx1-RWuvtASL0bG-24" vertex="1">
          <mxGeometry x="1560" y="120" width="120" height="80" as="geometry" />
        </mxCell>
        <mxCell id="2RuiBV0uSUDYE1R1gkZL-1" value="" style="edgeStyle=orthogonalEdgeStyle;rounded=0;orthogonalLoop=1;jettySize=auto;html=1;" parent="ulD_rFx1-RWuvtASL0bG-24" source="ulD_rFx1-RWuvtASL0bG-29" target="ulD_rFx1-RWuvtASL0bG-32" edge="1">
          <mxGeometry relative="1" as="geometry" />
        </mxCell>
        <mxCell id="ulD_rFx1-RWuvtASL0bG-29" value="Поставить диагноз" style="points=[[0.25,0,0],[0.5,0,0],[0.75,0,0],[1,0.25,0],[1,0.5,0],[1,0.75,0],[0.75,1,0],[0.5,1,0],[0.25,1,0],[0,0.75,0],[0,0.5,0],[0,0.25,0]];shape=mxgraph.bpmn.task;whiteSpace=wrap;rectStyle=rounded;size=10;taskMarker=abstract;isLoopSub=1;labelBackgroundColor=#FFFFFF;fontSize=11;fontColor=#000000;fillColor=#FFFFFF;" parent="ulD_rFx1-RWuvtASL0bG-24" vertex="1">
          <mxGeometry x="1720" y="120" width="120" height="80" as="geometry" />
        </mxCell>
        <mxCell id="ulD_rFx1-RWuvtASL0bG-30" value="Назначить лечение" style="points=[[0.25,0,0],[0.5,0,0],[0.75,0,0],[1,0.25,0],[1,0.5,0],[1,0.75,0],[0.75,1,0],[0.5,1,0],[0.25,1,0],[0,0.75,0],[0,0.5,0],[0,0.25,0]];shape=mxgraph.bpmn.task;whiteSpace=wrap;rectStyle=rounded;size=10;taskMarker=abstract;fontSize=11;" parent="ulD_rFx1-RWuvtASL0bG-24" vertex="1">
          <mxGeometry x="1985" y="120" width="120" height="80" as="geometry" />
        </mxCell>
        <mxCell id="ulD_rFx1-RWuvtASL0bG-31" value="Оформлен&lt;br style=&quot;border-color: var(--border-color);&quot;&gt;протокол осмотра&lt;span style=&quot;background-color: rgb(248, 249, 250);&quot;&gt;&lt;br&gt;&lt;/span&gt;" style="points=[[0.145,0.145,0],[0.5,0,0],[0.855,0.145,0],[1,0.5,0],[0.855,0.855,0],[0.5,1,0],[0.145,0.855,0],[0,0.5,0]];shape=mxgraph.bpmn.event;html=1;verticalLabelPosition=bottom;labelBackgroundColor=#ffffff;verticalAlign=top;align=center;perimeter=ellipsePerimeter;outlineConnect=0;aspect=fixed;outline=end;symbol=terminate2;fontSize=11;" parent="ulD_rFx1-RWuvtASL0bG-24" vertex="1">
          <mxGeometry x="2150" y="135" width="50" height="50" as="geometry" />
        </mxCell>
        <mxCell id="ulD_rFx1-RWuvtASL0bG-32" value="&lt;font style=&quot;font-size: 11px;&quot;&gt;Диагноз поставлен&lt;/font&gt;" style="points=[[0.145,0.145,0],[0.5,0,0],[0.855,0.145,0],[1,0.5,0],[0.855,0.855,0],[0.5,1,0],[0.145,0.855,0],[0,0.5,0]];shape=mxgraph.bpmn.event;html=1;verticalLabelPosition=bottom;labelBackgroundColor=#ffffff;verticalAlign=top;align=center;perimeter=ellipsePerimeter;outlineConnect=0;aspect=fixed;outline=throwing;symbol=general;" parent="ulD_rFx1-RWuvtASL0bG-24" vertex="1">
          <mxGeometry x="1890" y="135" width="50" height="50" as="geometry" />
        </mxCell>
        <mxCell id="ulD_rFx1-RWuvtASL0bG-34" style="edgeStyle=orthogonalEdgeStyle;rounded=0;orthogonalLoop=1;jettySize=auto;html=1;exitX=1;exitY=0.5;exitDx=0;exitDy=0;exitPerimeter=0;entryX=0;entryY=0.5;entryDx=0;entryDy=0;entryPerimeter=0;" parent="ulD_rFx1-RWuvtASL0bG-24" source="ulD_rFx1-RWuvtASL0bG-30" target="ulD_rFx1-RWuvtASL0bG-31" edge="1">
          <mxGeometry relative="1" as="geometry" />
        </mxCell>
        <mxCell id="ulD_rFx1-RWuvtASL0bG-35" style="edgeStyle=orthogonalEdgeStyle;rounded=0;orthogonalLoop=1;jettySize=auto;html=1;exitX=1;exitY=0.5;exitDx=0;exitDy=0;exitPerimeter=0;entryX=0;entryY=0.5;entryDx=0;entryDy=0;entryPerimeter=0;" parent="ulD_rFx1-RWuvtASL0bG-24" source="ulD_rFx1-RWuvtASL0bG-32" target="ulD_rFx1-RWuvtASL0bG-30" edge="1">
          <mxGeometry relative="1" as="geometry" />
        </mxCell>
        <mxCell id="3vmsIUkNHVP9UVEgB6uf-3" value="" style="edgeStyle=orthogonalEdgeStyle;rounded=0;orthogonalLoop=1;jettySize=auto;html=1;" parent="ulD_rFx1-RWuvtASL0bG-24" source="3vmsIUkNHVP9UVEgB6uf-2" target="ulD_rFx1-RWuvtASL0bG-27" edge="1">
          <mxGeometry relative="1" as="geometry" />
        </mxCell>
        <mxCell id="3vmsIUkNHVP9UVEgB6uf-2" value="Пациент&lt;br style=&quot;border-color: var(--border-color);&quot;&gt;пришел на приём" style="points=[[0.145,0.145,0],[0.5,0,0],[0.855,0.145,0],[1,0.5,0],[0.855,0.855,0],[0.5,1,0],[0.145,0.855,0],[0,0.5,0]];shape=mxgraph.bpmn.event;html=1;verticalLabelPosition=bottom;labelBackgroundColor=#ffffff;verticalAlign=top;align=center;perimeter=ellipsePerimeter;outlineConnect=0;aspect=fixed;outline=standard;symbol=message;fontSize=11;" parent="ulD_rFx1-RWuvtASL0bG-24" vertex="1">
          <mxGeometry x="1460" y="135" width="50" height="50" as="geometry" />
        </mxCell>
        <mxCell id="W-VEdfCq-et-qdLQ6mGL-4" style="rounded=0;orthogonalLoop=1;jettySize=auto;html=1;exitX=0.5;exitY=0;exitDx=0;exitDy=0;exitPerimeter=0;entryX=0.5;entryY=1;entryDx=0;entryDy=0;entryPerimeter=0;dashed=1;startArrow=oval;startFill=0;" parent="1" source="ulD_rFx1-RWuvtASL0bG-30" target="W-VEdfCq-et-qdLQ6mGL-2" edge="1">
          <mxGeometry relative="1" as="geometry" />
        </mxCell>
        <mxCell id="XzukF2Bfe89nJHPHAxkQ-16" style="edgeStyle=orthogonalEdgeStyle;rounded=0;orthogonalLoop=1;jettySize=auto;html=1;exitX=0.5;exitY=1;exitDx=0;exitDy=0;exitPerimeter=0;startArrow=oval;startFill=0;dashed=1;entryX=0.5;entryY=0;entryDx=0;entryDy=0;entryPerimeter=0;" parent="1" source="rQnvSaKvkVLAncGvvP-1-1" target="3vmsIUkNHVP9UVEgB6uf-2" edge="1">
          <mxGeometry relative="1" as="geometry">
            <Array as="points">
              <mxPoint x="1996" y="-406" />
              <mxPoint x="1596" y="-406" />
            </Array>
            <mxPoint x="1571" y="-366" as="targetPoint" />
          </mxGeometry>
        </mxCell>
      </root>
    </mxGraphModel>
  </diagram>
</mxfile>
